<mxfile host="app.diagrams.net" modified="2023-04-18T09:52:02.587Z" agent="Mozilla/5.0 (Windows NT 10.0; Win64; x64) AppleWebKit/537.36 (KHTML, like Gecko) Chrome/112.0.0.0 Safari/537.36" etag="xAj-Yomob99pA34jR5ys" version="21.1.8" type="github" pages="4">
  <diagram name="DF Diagram" id="c7558073-3199-34d8-9f00-42111426c3f3">
    <mxGraphModel dx="989" dy="610" grid="1" gridSize="10" guides="1" tooltips="1" connect="1" arrows="1" fold="1" page="1" pageScale="1" pageWidth="1169" pageHeight="827" background="none" math="0" shadow="0">
      <root>
        <mxCell id="0" />
        <mxCell id="1" parent="0" />
        <mxCell id="LLPNcgww5Y-2xI41w6kp-183" value="&lt;font style=&quot;font-size: 20px&quot;&gt;get_cars(python) - Data Flow Diagram&lt;/font&gt;" style="text;html=1;resizable=0;points=[];autosize=1;align=left;verticalAlign=top;spacingTop=-8;fontSize=14;spacingLeft=7;" parent="1" vertex="1">
          <mxGeometry x="360" y="10" width="370" height="30" as="geometry" />
        </mxCell>
        <mxCell id="LLPNcgww5Y-2xI41w6kp-187" style="edgeStyle=orthogonalEdgeStyle;rounded=0;orthogonalLoop=1;jettySize=auto;html=1;startArrow=none;startFill=0;startSize=6;endArrow=classic;endFill=1;fontSize=17;exitX=0.591;exitY=0.009;exitDx=0;exitDy=0;exitPerimeter=0;" parent="1" source="LLPNcgww5Y-2xI41w6kp-188" target="LLPNcgww5Y-2xI41w6kp-193" edge="1">
          <mxGeometry relative="1" as="geometry">
            <Array as="points" />
          </mxGeometry>
        </mxCell>
        <UserObject label="" link="data:page/id,Txbi6B_1BCxX_sgVFAu3" id="LLPNcgww5Y-2xI41w6kp-188">
          <mxCell style="verticalLabelPosition=bottom;verticalAlign=top;html=1;strokeWidth=2;shape=card;whiteSpace=wrap;size=26;arcSize=12;startSize=26;fillColor=#FFFFFF;fontSize=17;direction=south;" parent="1" vertex="1">
            <mxGeometry x="35" y="80" width="60" height="87" as="geometry" />
          </mxCell>
        </UserObject>
        <mxCell id="LLPNcgww5Y-2xI41w6kp-191" value="" style="rounded=1;whiteSpace=wrap;html=1;absoluteArcSize=1;arcSize=14;strokeWidth=2;startSize=26;fillColor=#fff2cc;fontSize=17;" parent="1" vertex="1">
          <mxGeometry x="130" y="105.25" width="87" height="54" as="geometry" />
        </mxCell>
        <mxCell id="LLPNcgww5Y-2xI41w6kp-192" value="&lt;font style=&quot;font-size: 13px&quot;&gt;csv Ectract&amp;nbsp;&amp;nbsp;&lt;br&gt;(Python, l)&lt;/font&gt;" style="text;html=1;resizable=0;points=[];autosize=1;align=center;verticalAlign=top;spacingTop=-4;fontSize=17;" parent="1" vertex="1">
          <mxGeometry x="130" y="104.25" width="90" height="50" as="geometry" />
        </mxCell>
        <mxCell id="4G6sJublhTeIli8Vi0Ma-4" value="" style="edgeStyle=orthogonalEdgeStyle;rounded=0;orthogonalLoop=1;jettySize=auto;html=1;" edge="1" parent="1" source="LLPNcgww5Y-2xI41w6kp-193">
          <mxGeometry relative="1" as="geometry">
            <mxPoint x="700" y="120" as="targetPoint" />
          </mxGeometry>
        </mxCell>
        <UserObject label="&lt;span style=&quot;font-family: &amp;#34;helvetica&amp;#34; , &amp;#34;arial&amp;#34; , sans-serif ; font-size: 0px&quot;&gt;%3CmxGraphModel%3E%3Croot%3E%3CmxCell%20id%3D%220%22%2F%3E%3CmxCell%20id%3D%221%22%20parent%3D%220%22%2F%3E%3CmxCell%20id%3D%222%22%20value%3D%22%22%20style%3D%22verticalLabelPosition%3Dbottom%3BverticalAlign%3Dtop%3Bhtml%3D1%3Bshape%3Dmxgraph.basic.rect%3BfillColor%3D%23ffffff%3BfillColor2%3Dnone%3BstrokeColor%3D%23000000%3BstrokeWidth%3D1%3Bsize%3D20%3Bindent%3D5%3BstartSize%3D26%3BfontSize%3D17%3B%22%20vertex%3D%221%22%20parent%3D%221%22%3E%3CmxGeometry%20x%3D%22490%22%20y%3D%22363%22%20width%3D%2255%22%20height%3D%2230%22%20as%3D%22geometry%22%2F%3E%3C%2FmxCell%3E%3C%2Froot%3E%3C%2FmxGraphModel%3E&lt;/span&gt;" link="data:page/id,Txbi6B_1BCxX_sgVFAu3" id="LLPNcgww5Y-2xI41w6kp-193">
          <mxCell style="verticalLabelPosition=bottom;verticalAlign=top;html=1;strokeWidth=2;shape=card;whiteSpace=wrap;size=0;arcSize=12;startSize=26;fontSize=17;" parent="1" vertex="1">
            <mxGeometry x="254" y="85.5" width="116" height="77.5" as="geometry" />
          </mxCell>
        </UserObject>
        <mxCell id="LLPNcgww5Y-2xI41w6kp-195" value="&lt;font style=&quot;font-size: 13px&quot;&gt;0. Source&lt;br&gt;.csv File&lt;/font&gt;" style="text;html=1;resizable=0;points=[];autosize=1;align=center;verticalAlign=top;spacingTop=-4;fontSize=17;" parent="1" vertex="1">
          <mxGeometry x="25" y="98.25" width="80" height="50" as="geometry" />
        </mxCell>
        <mxCell id="zdQfX3ErJGEIJwNeqcKe-1" value="" style="verticalLabelPosition=bottom;verticalAlign=top;html=1;strokeWidth=2;shape=card;whiteSpace=wrap;size=11;arcSize=12;startSize=26;fillColor=#FFFFFF;fontSize=17;direction=south;" parent="1" vertex="1">
          <mxGeometry x="38" y="519" width="32" height="41" as="geometry" />
        </mxCell>
        <mxCell id="zdQfX3ErJGEIJwNeqcKe-2" value="&lt;font style=&quot;font-size: 13px&quot;&gt;Source&amp;nbsp;Data&lt;/font&gt;" style="text;html=1;resizable=0;points=[];autosize=1;align=center;verticalAlign=top;spacingTop=-4;fontSize=17;" parent="1" vertex="1">
          <mxGeometry x="91.5" y="533" width="90" height="20" as="geometry" />
        </mxCell>
        <mxCell id="zdQfX3ErJGEIJwNeqcKe-3" value="" style="strokeWidth=2;html=1;shape=mxgraph.flowchart.database;whiteSpace=wrap;startSize=26;fillColor=#FFFFFF;fontSize=17;" parent="1" vertex="1">
          <mxGeometry x="29" y="576" width="41" height="44" as="geometry" />
        </mxCell>
        <mxCell id="zdQfX3ErJGEIJwNeqcKe-4" value="&lt;font style=&quot;font-size: 13px&quot;&gt;Database&lt;/font&gt;" style="text;html=1;resizable=0;points=[];autosize=1;align=center;verticalAlign=top;spacingTop=-4;fontSize=17;" parent="1" vertex="1">
          <mxGeometry x="94" y="579" width="70" height="20" as="geometry" />
        </mxCell>
        <mxCell id="zdQfX3ErJGEIJwNeqcKe-5" value="" style="rounded=1;whiteSpace=wrap;html=1;absoluteArcSize=1;arcSize=14;strokeWidth=2;startSize=26;fillColor=#fff2cc;fontSize=17;" parent="1" vertex="1">
          <mxGeometry x="29" y="626.5" width="61" height="29" as="geometry" />
        </mxCell>
        <mxCell id="zdQfX3ErJGEIJwNeqcKe-6" value="&lt;span style=&quot;font-family: &amp;#34;helvetica&amp;#34; , &amp;#34;arial&amp;#34; , sans-serif ; font-size: 0px&quot;&gt;%3CmxGraphModel%3E%3Croot%3E%3CmxCell%20id%3D%220%22%2F%3E%3CmxCell%20id%3D%221%22%20parent%3D%220%22%2F%3E%3CmxCell%20id%3D%222%22%20value%3D%22%22%20style%3D%22verticalLabelPosition%3Dbottom%3BverticalAlign%3Dtop%3Bhtml%3D1%3Bshape%3Dmxgraph.basic.rect%3BfillColor%3D%23ffffff%3BfillColor2%3Dnone%3BstrokeColor%3D%23000000%3BstrokeWidth%3D1%3Bsize%3D20%3Bindent%3D5%3BstartSize%3D26%3BfontSize%3D17%3B%22%20vertex%3D%221%22%20parent%3D%221%22%3E%3CmxGeometry%20x%3D%22490%22%20y%3D%22363%22%20width%3D%2255%22%20height%3D%2230%22%20as%3D%22geometry%22%2F%3E%3C%2FmxCell%3E%3C%2Froot%3E%3C%2FmxGraphModel%3E&lt;/span&gt;" style="verticalLabelPosition=bottom;verticalAlign=top;html=1;strokeWidth=2;shape=card;whiteSpace=wrap;size=0;arcSize=12;startSize=26;fontSize=17;" parent="1" vertex="1">
          <mxGeometry x="34" y="665" width="32" height="30" as="geometry" />
        </mxCell>
        <mxCell id="zdQfX3ErJGEIJwNeqcKe-7" value="&lt;font style=&quot;font-size: 13px&quot;&gt;Process&lt;/font&gt;" style="text;html=1;resizable=0;points=[];autosize=1;align=center;verticalAlign=top;spacingTop=-4;fontSize=17;" parent="1" vertex="1">
          <mxGeometry x="95" y="626" width="60" height="20" as="geometry" />
        </mxCell>
        <mxCell id="zdQfX3ErJGEIJwNeqcKe-8" value="&lt;font style=&quot;font-size: 13px&quot;&gt;Entity&lt;/font&gt;" style="text;html=1;resizable=0;points=[];autosize=1;align=center;verticalAlign=top;spacingTop=-4;fontSize=17;" parent="1" vertex="1">
          <mxGeometry x="93" y="667" width="50" height="20" as="geometry" />
        </mxCell>
        <mxCell id="zdQfX3ErJGEIJwNeqcKe-9" value="&lt;font style=&quot;font-size: 13px&quot;&gt;Insert only&lt;br&gt;&amp;nbsp;Load&lt;/font&gt;" style="text;html=1;resizable=0;points=[];autosize=1;align=left;verticalAlign=top;spacingTop=-4;fontSize=17;" parent="1" vertex="1">
          <mxGeometry x="315.5" y="580" width="80" height="40" as="geometry" />
        </mxCell>
        <mxCell id="zdQfX3ErJGEIJwNeqcKe-10" value="&lt;font style=&quot;font-size: 21px&quot;&gt;i&lt;/font&gt;" style="text;html=1;resizable=0;points=[];autosize=1;align=center;verticalAlign=top;spacingTop=-4;fontSize=17;" parent="1" vertex="1">
          <mxGeometry x="264" y="586" width="20" height="20" as="geometry" />
        </mxCell>
        <mxCell id="zdQfX3ErJGEIJwNeqcKe-11" value="&lt;font style=&quot;font-size: 13px&quot;&gt;Insert/Update&lt;br&gt;&amp;nbsp;Load&lt;/font&gt;" style="text;html=1;resizable=0;points=[];autosize=1;align=left;verticalAlign=top;spacingTop=-4;fontSize=17;" parent="1" vertex="1">
          <mxGeometry x="315.5" y="524" width="90" height="40" as="geometry" />
        </mxCell>
        <mxCell id="zdQfX3ErJGEIJwNeqcKe-12" value="&lt;font style=&quot;font-size: 21px&quot;&gt;i/u&lt;/font&gt;" style="text;html=1;resizable=0;points=[];autosize=1;align=center;verticalAlign=top;spacingTop=-4;fontSize=17;" parent="1" vertex="1">
          <mxGeometry x="255" y="530" width="40" height="20" as="geometry" />
        </mxCell>
        <mxCell id="zdQfX3ErJGEIJwNeqcKe-13" style="edgeStyle=orthogonalEdgeStyle;rounded=0;orthogonalLoop=1;jettySize=auto;html=1;dashed=1;startArrow=none;startFill=0;startSize=6;endArrow=classic;endFill=1;fontSize=17;fillColor=#f8cecc;strokeColor=#b85450;" parent="1" edge="1">
          <mxGeometry relative="1" as="geometry">
            <mxPoint x="302" y="712" as="sourcePoint" />
            <mxPoint x="302" y="712" as="targetPoint" />
            <Array as="points">
              <mxPoint x="214" y="712" />
              <mxPoint x="490" y="712" />
            </Array>
          </mxGeometry>
        </mxCell>
        <mxCell id="zdQfX3ErJGEIJwNeqcKe-14" style="edgeStyle=orthogonalEdgeStyle;rounded=0;orthogonalLoop=1;jettySize=auto;html=1;dashed=1;startArrow=none;startFill=0;startSize=6;endArrow=classic;endFill=1;fontSize=17;fillColor=#dae8fc;strokeColor=#6c8ebf;" parent="1" edge="1">
          <mxGeometry relative="1" as="geometry">
            <mxPoint x="304.20000000000005" y="785" as="sourcePoint" />
            <mxPoint x="304.20000000000005" y="785" as="targetPoint" />
            <Array as="points">
              <mxPoint x="216" y="785" />
              <mxPoint x="492" y="785" />
            </Array>
          </mxGeometry>
        </mxCell>
        <mxCell id="zdQfX3ErJGEIJwNeqcKe-15" value="&lt;font style=&quot;font-size: 13px&quot;&gt;Data flow to&lt;br&gt;process_load_status&lt;br&gt;table&lt;/font&gt;" style="text;html=1;resizable=0;points=[];autosize=1;align=left;verticalAlign=top;spacingTop=-4;fontSize=17;" parent="1" vertex="1">
          <mxGeometry x="317" y="680" width="130" height="60" as="geometry" />
        </mxCell>
        <mxCell id="zdQfX3ErJGEIJwNeqcKe-16" value="&lt;font style=&quot;font-size: 13px&quot;&gt;Data flow to&lt;br&gt;bad_data&amp;nbsp;table&lt;/font&gt;" style="text;html=1;resizable=0;points=[];autosize=1;align=left;verticalAlign=top;spacingTop=-4;fontSize=17;" parent="1" vertex="1">
          <mxGeometry x="316" y="760" width="100" height="40" as="geometry" />
        </mxCell>
        <mxCell id="zdQfX3ErJGEIJwNeqcKe-17" value="" style="verticalLabelPosition=bottom;verticalAlign=top;html=1;strokeWidth=2;shape=card;whiteSpace=wrap;size=20;arcSize=12;" parent="1" vertex="1">
          <mxGeometry x="35" y="726" width="49" height="44" as="geometry" />
        </mxCell>
        <mxCell id="zdQfX3ErJGEIJwNeqcKe-18" value="&lt;span style=&quot;font-size: 13px;&quot;&gt;Python&#39;s &lt;br&gt;additional&lt;br&gt;functions&lt;/span&gt;" style="text;html=1;resizable=0;points=[];autosize=1;align=left;verticalAlign=top;spacingTop=-4;fontSize=17;" parent="1" vertex="1">
          <mxGeometry x="100.5" y="714" width="80" height="70" as="geometry" />
        </mxCell>
        <mxCell id="zdQfX3ErJGEIJwNeqcKe-19" value="&lt;span style=&quot;font-size: 13px&quot;&gt;Fully Reload&lt;/span&gt;" style="text;html=1;resizable=0;points=[];autosize=1;align=left;verticalAlign=top;spacingTop=-4;fontSize=17;" parent="1" vertex="1">
          <mxGeometry x="316" y="633.5" width="90" height="20" as="geometry" />
        </mxCell>
        <mxCell id="zdQfX3ErJGEIJwNeqcKe-20" value="&lt;font style=&quot;font-size: 21px&quot;&gt;r&lt;/font&gt;" style="text;html=1;resizable=0;points=[];autosize=1;align=center;verticalAlign=top;spacingTop=-4;fontSize=17;" parent="1" vertex="1">
          <mxGeometry x="264" y="630.5" width="20" height="20" as="geometry" />
        </mxCell>
        <UserObject label="" link="data:page/id,MOj9mV7dHSH--wGBZw3r" id="zdQfX3ErJGEIJwNeqcKe-21">
          <mxCell style="verticalLabelPosition=bottom;verticalAlign=top;html=1;strokeWidth=2;shape=card;whiteSpace=wrap;size=20;arcSize=12;" parent="1" vertex="1">
            <mxGeometry x="34" y="240" width="114" height="50" as="geometry" />
          </mxCell>
        </UserObject>
        <mxCell id="zdQfX3ErJGEIJwNeqcKe-22" value="&lt;span style=&quot;font-size: 13px;&quot;&gt;def get_args()&lt;/span&gt;" style="text;html=1;resizable=0;points=[];autosize=1;align=center;verticalAlign=top;spacingTop=-4;fontSize=17;" parent="1" vertex="1">
          <mxGeometry x="49" y="241" width="100" height="30" as="geometry" />
        </mxCell>
        <mxCell id="4hOeWUJftoHelfeGKjaZ-1" value="&lt;span style=&quot;font-size: 13px;&quot;&gt;1. rows &lt;br&gt;exctracted &lt;br&gt;as csv file&lt;/span&gt;" style="text;html=1;resizable=0;points=[];autosize=1;align=center;verticalAlign=top;spacingTop=-4;fontSize=17;" vertex="1" parent="1">
          <mxGeometry x="272" y="87.25" width="80" height="70" as="geometry" />
        </mxCell>
        <mxCell id="32Z3QOR57G3kuHObY7L4-1" value="" style="rounded=1;whiteSpace=wrap;html=1;absoluteArcSize=1;arcSize=14;strokeWidth=2;startSize=26;fillColor=#fff2cc;fontSize=17;" vertex="1" parent="1">
          <mxGeometry x="392.75" y="79.75" width="267.25" height="130.25" as="geometry" />
        </mxCell>
        <mxCell id="32Z3QOR57G3kuHObY7L4-2" value="&lt;font style=&quot;font-size: 13px&quot;&gt;csv Transform Python, i/u)&lt;/font&gt;" style="text;html=1;resizable=0;points=[];autosize=1;align=center;verticalAlign=top;spacingTop=-4;fontSize=17;" vertex="1" parent="1">
          <mxGeometry x="435" y="80.25" width="170" height="30" as="geometry" />
        </mxCell>
        <UserObject label="&lt;span style=&quot;font-family: &amp;#34;helvetica&amp;#34; , &amp;#34;arial&amp;#34; , sans-serif ; font-size: 0px&quot;&gt;%3CmxGraphModel%3E%3Croot%3E%3CmxCell%20id%3D%220%22%2F%3E%3CmxCell%20id%3D%221%22%20parent%3D%220%22%2F%3E%3CmxCell%20id%3D%222%22%20value%3D%22%22%20style%3D%22verticalLabelPosition%3Dbottom%3BverticalAlign%3Dtop%3Bhtml%3D1%3Bshape%3Dmxgraph.basic.rect%3BfillColor%3D%23ffffff%3BfillColor2%3Dnone%3BstrokeColor%3D%23000000%3BstrokeWidth%3D1%3Bsize%3D20%3Bindent%3D5%3BstartSize%3D26%3BfontSize%3D17%3B%22%20vertex%3D%221%22%20parent%3D%221%22%3E%3CmxGeometry%20x%3D%22490%22%20y%3D%22363%22%20width%3D%2255%22%20height%3D%2230%22%20as%3D%22geometry%22%2F%3E%3C%2FmxCell%3E%3C%2Froot%3E%3C%2FmxGraphModel%3E&lt;/span&gt;" link="data:page/id,Txbi6B_1BCxX_sgVFAu3" id="32Z3QOR57G3kuHObY7L4-3">
          <mxCell style="verticalLabelPosition=bottom;verticalAlign=top;html=1;strokeWidth=2;shape=card;whiteSpace=wrap;size=0;arcSize=12;startSize=26;fontSize=17;" vertex="1" parent="1">
            <mxGeometry x="467" y="113.5" width="116" height="86.5" as="geometry" />
          </mxCell>
        </UserObject>
        <mxCell id="32Z3QOR57G3kuHObY7L4-4" value="&lt;span style=&quot;font-size: 13px;&quot;&gt;2. part of required&lt;br&gt;&amp;nbsp;tokens&amp;nbsp;that is &lt;br&gt;used for filtering&amp;nbsp;&lt;br&gt;&lt;/span&gt;" style="text;html=1;resizable=0;points=[];autosize=1;align=center;verticalAlign=top;spacingTop=-4;fontSize=17;" vertex="1" parent="1">
          <mxGeometry x="460" y="114" width="130" height="70" as="geometry" />
        </mxCell>
        <UserObject label="" id="lbbjBg7hkV-mFMxphNQh-1">
          <mxCell style="verticalLabelPosition=bottom;verticalAlign=top;html=1;strokeWidth=2;shape=card;whiteSpace=wrap;size=20;arcSize=12;" vertex="1" parent="1">
            <mxGeometry x="155" y="240" width="665" height="50" as="geometry" />
          </mxCell>
        </UserObject>
        <mxCell id="lbbjBg7hkV-mFMxphNQh-2" value="&lt;span style=&quot;font-size: 13px;&quot;&gt;def parse_and_filter_file() - function parse each row of file, filters this one &lt;br&gt;and appends required rows to filtered_cars dic&lt;/span&gt;" style="text;html=1;resizable=0;points=[];autosize=1;align=center;verticalAlign=top;spacingTop=-4;fontSize=17;" vertex="1" parent="1">
          <mxGeometry x="255" y="240" width="440" height="50" as="geometry" />
        </mxCell>
        <UserObject label="&lt;span style=&quot;font-family: &amp;#34;helvetica&amp;#34; , &amp;#34;arial&amp;#34; , sans-serif ; font-size: 0px&quot;&gt;%3CmxGraphModel%3E%3Croot%3E%3CmxCell%20id%3D%220%22%2F%3E%3CmxCell%20id%3D%221%22%20parent%3D%220%22%2F%3E%3CmxCell%20id%3D%222%22%20value%3D%22%22%20style%3D%22verticalLabelPosition%3Dbottom%3BverticalAlign%3Dtop%3Bhtml%3D1%3Bshape%3Dmxgraph.basic.rect%3BfillColor%3D%23ffffff%3BfillColor2%3Dnone%3BstrokeColor%3D%23000000%3BstrokeWidth%3D1%3Bsize%3D20%3Bindent%3D5%3BstartSize%3D26%3BfontSize%3D17%3B%22%20vertex%3D%221%22%20parent%3D%221%22%3E%3CmxGeometry%20x%3D%22490%22%20y%3D%22363%22%20width%3D%2255%22%20height%3D%2230%22%20as%3D%22geometry%22%2F%3E%3C%2FmxCell%3E%3C%2Froot%3E%3C%2FmxGraphModel%3E&lt;/span&gt;" link="data:page/id,Txbi6B_1BCxX_sgVFAu3" id="4G6sJublhTeIli8Vi0Ma-1">
          <mxCell style="verticalLabelPosition=bottom;verticalAlign=top;html=1;strokeWidth=2;shape=card;whiteSpace=wrap;size=0;arcSize=12;startSize=26;fontSize=17;" vertex="1" parent="1">
            <mxGeometry x="702" y="85.5" width="116" height="77.5" as="geometry" />
          </mxCell>
        </UserObject>
        <mxCell id="4G6sJublhTeIli8Vi0Ma-2" value="&lt;span style=&quot;font-size: 13px;&quot;&gt;3. exctacted tokens&amp;nbsp;&lt;br&gt;appended to the&lt;br&gt;result filtered_cars&amp;nbsp;&lt;br&gt;&lt;/span&gt;" style="text;html=1;resizable=0;points=[];autosize=1;align=center;verticalAlign=top;spacingTop=-4;fontSize=17;" vertex="1" parent="1">
          <mxGeometry x="692" y="83.25" width="140" height="70" as="geometry" />
        </mxCell>
      </root>
    </mxGraphModel>
  </diagram>
  <diagram id="MOj9mV7dHSH--wGBZw3r" name="arguments">
    <mxGraphModel dx="1434" dy="884" grid="1" gridSize="10" guides="1" tooltips="1" connect="1" arrows="1" fold="1" page="1" pageScale="1" pageWidth="1169" pageHeight="827" math="0" shadow="0">
      <root>
        <mxCell id="0" />
        <mxCell id="1" parent="0" />
        <mxCell id="GxNx0zB6O1hY6PmNvxaY-2" value="&lt;table style=&quot;box-sizing: border-box; border-spacing: 0px; border-collapse: collapse; tab-size: 8; color: rgb(31, 35, 40); font-family: -apple-system, BlinkMacSystemFont, &amp;quot;Segoe UI&amp;quot;, &amp;quot;Noto Sans&amp;quot;, Helvetica, Arial, sans-serif, &amp;quot;Apple Color Emoji&amp;quot;, &amp;quot;Segoe UI Emoji&amp;quot;; font-size: 14px; font-style: normal; font-variant-ligatures: normal; font-variant-caps: normal; font-weight: 400; letter-spacing: normal; orphans: 2; text-align: start; text-transform: none; widows: 2; word-spacing: 0px; -webkit-text-stroke-width: 0px; background-color: rgb(255, 255, 255); text-decoration-thickness: initial; text-decoration-style: initial; text-decoration-color: initial;&quot; data-tagsearch-path=&quot;get_cars(python)/main.py&quot; data-tagsearch-lang=&quot;Python&quot; data-paste-markdown-skip=&quot;&quot; data-tab-size=&quot;8&quot; class=&quot;highlight tab-size js-file-line-container js-code-nav-container js-tagsearch-file&quot; data-hpc=&quot;&quot;&gt;&lt;tbody style=&quot;box-sizing: border-box;&quot;&gt;&lt;tr style=&quot;box-sizing: border-box;&quot;&gt;&lt;td style=&quot;box-sizing: border-box; padding: 0px 10px; position: relative; line-height: 20px; vertical-align: top; display: table-cell; overflow: visible; font-family: ui-monospace, SFMono-Regular, &amp;quot;SF Mono&amp;quot;, Menlo, Consolas, &amp;quot;Liberation Mono&amp;quot;, monospace; font-size: 12px; color: var(--color-fg-default); overflow-wrap: anywhere;&quot; class=&quot;blob-code blob-code-inner js-file-line&quot; id=&quot;LC17&quot;&gt;&lt;br&gt;&lt;/td&gt;&lt;/tr&gt;&lt;tr style=&quot;box-sizing: border-box; background-color: transparent;&quot;&gt;&lt;td style=&quot;box-sizing: border-box; padding: 0px 10px; position: relative; width: 50px; min-width: 50px; font-family: ui-monospace, SFMono-Regular, &amp;quot;SF Mono&amp;quot;, Menlo, Consolas, &amp;quot;Liberation Mono&amp;quot;, monospace; font-size: 12px; line-height: 20px; color: var(--color-fg-subtle); text-align: right; vertical-align: top; cursor: pointer; user-select: none;&quot; data-line-number=&quot;18&quot; class=&quot;blob-num js-line-number js-code-nav-line-number js-blob-rnum&quot; id=&quot;L18&quot;&gt;&lt;/td&gt;&lt;td style=&quot;box-sizing: border-box; padding: 0px 10px; position: relative; line-height: 20px; vertical-align: top; display: table-cell; overflow: visible; font-family: ui-monospace, SFMono-Regular, &amp;quot;SF Mono&amp;quot;, Menlo, Consolas, &amp;quot;Liberation Mono&amp;quot;, monospace; font-size: 12px; color: var(--color-fg-default); overflow-wrap: anywhere;&quot; class=&quot;blob-code blob-code-inner js-file-line&quot; id=&quot;LC18&quot;&gt;&lt;span style=&quot;box-sizing: border-box;&quot; class=&quot;pl-s1&quot;&gt;&lt;span style=&quot;&quot;&gt;	&lt;/span&gt;&lt;span style=&quot;white-space: pre;&quot;&gt;	&lt;span style=&quot;white-space: pre;&quot;&gt;	&lt;/span&gt;&lt;span style=&quot;white-space: pre;&quot;&gt;	&lt;/span&gt;&lt;span style=&quot;white-space: pre;&quot;&gt;	&lt;/span&gt;&lt;span style=&quot;white-space: pre;&quot;&gt;	&lt;/span&gt;&lt;/span&gt;def get_args()&lt;br&gt;Expected arguments:&lt;br&gt;&lt;br&gt;parser&lt;/span&gt;.&lt;span style=&quot;box-sizing: border-box; color: var(--color-prettylights-syntax-entity);&quot; class=&quot;pl-en&quot;&gt;add_argument&lt;/span&gt;(&lt;span style=&quot;box-sizing: border-box; color: var(--color-prettylights-syntax-string);&quot; class=&quot;pl-s&quot;&gt;&#39;-year_from&#39;&lt;/span&gt;, &lt;span style=&quot;box-sizing: border-box;&quot; class=&quot;pl-s1&quot;&gt;type&lt;/span&gt;&lt;span style=&quot;box-sizing: border-box; color: var(--color-prettylights-syntax-constant);&quot; class=&quot;pl-c1&quot;&gt;=&lt;/span&gt;&lt;span style=&quot;box-sizing: border-box;&quot; class=&quot;pl-s1&quot;&gt;int&lt;/span&gt;, &lt;span style=&quot;box-sizing: border-box;&quot; class=&quot;pl-s1&quot;&gt;default&lt;/span&gt;&lt;span style=&quot;box-sizing: border-box; color: var(--color-prettylights-syntax-constant);&quot; class=&quot;pl-c1&quot;&gt;=&lt;/span&gt;&lt;span style=&quot;box-sizing: border-box; color: var(--color-prettylights-syntax-constant);&quot; class=&quot;pl-c1&quot;&gt;None&lt;/span&gt;, &lt;span style=&quot;box-sizing: border-box;&quot; class=&quot;pl-s1&quot;&gt;help&lt;/span&gt;&lt;span style=&quot;box-sizing: border-box; color: var(--color-prettylights-syntax-constant);&quot; class=&quot;pl-c1&quot;&gt;=&lt;/span&gt;&lt;span style=&quot;box-sizing: border-box; color: var(--color-prettylights-syntax-string);&quot; class=&quot;pl-s&quot;&gt;&#39;only digit values&#39;&lt;/span&gt;)&lt;/td&gt;&lt;/tr&gt;&lt;tr style=&quot;box-sizing: border-box;&quot;&gt;&lt;td style=&quot;box-sizing: border-box; padding: 0px 10px; position: relative; width: 50px; min-width: 50px; font-family: ui-monospace, SFMono-Regular, &amp;quot;SF Mono&amp;quot;, Menlo, Consolas, &amp;quot;Liberation Mono&amp;quot;, monospace; font-size: 12px; line-height: 20px; color: var(--color-fg-subtle); text-align: right; vertical-align: top; cursor: pointer; user-select: none;&quot; data-line-number=&quot;19&quot; class=&quot;blob-num js-line-number js-code-nav-line-number js-blob-rnum&quot; id=&quot;L19&quot;&gt;&lt;/td&gt;&lt;td style=&quot;box-sizing: border-box; padding: 0px 10px; position: relative; line-height: 20px; vertical-align: top; display: table-cell; overflow: visible; font-family: ui-monospace, SFMono-Regular, &amp;quot;SF Mono&amp;quot;, Menlo, Consolas, &amp;quot;Liberation Mono&amp;quot;, monospace; font-size: 12px; color: var(--color-fg-default); overflow-wrap: anywhere;&quot; class=&quot;blob-code blob-code-inner js-file-line&quot; id=&quot;LC19&quot;&gt;    &lt;span style=&quot;box-sizing: border-box;&quot; class=&quot;pl-s1&quot;&gt;parser&lt;/span&gt;.&lt;span style=&quot;box-sizing: border-box; color: var(--color-prettylights-syntax-entity);&quot; class=&quot;pl-en&quot;&gt;add_argument&lt;/span&gt;(&lt;span style=&quot;box-sizing: border-box; color: var(--color-prettylights-syntax-string);&quot; class=&quot;pl-s&quot;&gt;&#39;-year_to&#39;&lt;/span&gt;, &lt;span style=&quot;box-sizing: border-box;&quot; class=&quot;pl-s1&quot;&gt;type&lt;/span&gt;&lt;span style=&quot;box-sizing: border-box; color: var(--color-prettylights-syntax-constant);&quot; class=&quot;pl-c1&quot;&gt;=&lt;/span&gt;&lt;span style=&quot;box-sizing: border-box;&quot; class=&quot;pl-s1&quot;&gt;int&lt;/span&gt;, &lt;span style=&quot;box-sizing: border-box;&quot; class=&quot;pl-s1&quot;&gt;default&lt;/span&gt;&lt;span style=&quot;box-sizing: border-box; color: var(--color-prettylights-syntax-constant);&quot; class=&quot;pl-c1&quot;&gt;=&lt;/span&gt;&lt;span style=&quot;box-sizing: border-box; color: var(--color-prettylights-syntax-constant);&quot; class=&quot;pl-c1&quot;&gt;None&lt;/span&gt;, &lt;span style=&quot;box-sizing: border-box;&quot; class=&quot;pl-s1&quot;&gt;help&lt;/span&gt;&lt;span style=&quot;box-sizing: border-box; color: var(--color-prettylights-syntax-constant);&quot; class=&quot;pl-c1&quot;&gt;=&lt;/span&gt;&lt;span style=&quot;box-sizing: border-box; color: var(--color-prettylights-syntax-string);&quot; class=&quot;pl-s&quot;&gt;&#39;only digit values&#39;&lt;/span&gt;)&lt;/td&gt;&lt;/tr&gt;&lt;tr style=&quot;box-sizing: border-box; background-color: transparent;&quot;&gt;&lt;td style=&quot;box-sizing: border-box; padding: 0px 10px; position: relative; width: 50px; min-width: 50px; font-family: ui-monospace, SFMono-Regular, &amp;quot;SF Mono&amp;quot;, Menlo, Consolas, &amp;quot;Liberation Mono&amp;quot;, monospace; font-size: 12px; line-height: 20px; color: var(--color-fg-subtle); text-align: right; vertical-align: top; cursor: pointer; user-select: none;&quot; data-line-number=&quot;20&quot; class=&quot;blob-num js-line-number js-code-nav-line-number js-blob-rnum&quot; id=&quot;L20&quot;&gt;&lt;/td&gt;&lt;td style=&quot;box-sizing: border-box; padding: 0px 10px; position: relative; line-height: 20px; vertical-align: top; display: table-cell; overflow: visible; font-family: ui-monospace, SFMono-Regular, &amp;quot;SF Mono&amp;quot;, Menlo, Consolas, &amp;quot;Liberation Mono&amp;quot;, monospace; font-size: 12px; color: var(--color-fg-default); overflow-wrap: anywhere;&quot; class=&quot;blob-code blob-code-inner js-file-line&quot; id=&quot;LC20&quot;&gt;    &lt;span style=&quot;box-sizing: border-box;&quot; class=&quot;pl-s1&quot;&gt;parser&lt;/span&gt;.&lt;span style=&quot;box-sizing: border-box; color: var(--color-prettylights-syntax-entity);&quot; class=&quot;pl-en&quot;&gt;add_argument&lt;/span&gt;(&lt;span style=&quot;box-sizing: border-box; color: var(--color-prettylights-syntax-string);&quot; class=&quot;pl-s&quot;&gt;&#39;-brand&#39;&lt;/span&gt;, &lt;span style=&quot;box-sizing: border-box;&quot; class=&quot;pl-s1&quot;&gt;type&lt;/span&gt;&lt;span style=&quot;box-sizing: border-box; color: var(--color-prettylights-syntax-constant);&quot; class=&quot;pl-c1&quot;&gt;=&lt;/span&gt;&lt;span style=&quot;box-sizing: border-box;&quot; class=&quot;pl-s1&quot;&gt;str&lt;/span&gt;, &lt;span style=&quot;box-sizing: border-box;&quot; class=&quot;pl-s1&quot;&gt;default&lt;/span&gt;&lt;span style=&quot;box-sizing: border-box; color: var(--color-prettylights-syntax-constant);&quot; class=&quot;pl-c1&quot;&gt;=&lt;/span&gt;&lt;span style=&quot;box-sizing: border-box; color: var(--color-prettylights-syntax-constant);&quot; class=&quot;pl-c1&quot;&gt;None&lt;/span&gt;, &lt;span style=&quot;box-sizing: border-box;&quot; class=&quot;pl-s1&quot;&gt;help&lt;/span&gt;&lt;span style=&quot;box-sizing: border-box; color: var(--color-prettylights-syntax-constant);&quot; class=&quot;pl-c1&quot;&gt;=&lt;/span&gt;&lt;span style=&quot;box-sizing: border-box; color: var(--color-prettylights-syntax-string);&quot; class=&quot;pl-s&quot;&gt;&#39;&#39;&lt;/span&gt;)&lt;/td&gt;&lt;/tr&gt;&lt;tr style=&quot;box-sizing: border-box;&quot;&gt;&lt;td style=&quot;box-sizing: border-box; padding: 0px 10px; position: relative; width: 50px; min-width: 50px; font-family: ui-monospace, SFMono-Regular, &amp;quot;SF Mono&amp;quot;, Menlo, Consolas, &amp;quot;Liberation Mono&amp;quot;, monospace; font-size: 12px; line-height: 20px; color: var(--color-fg-subtle); text-align: right; vertical-align: top; cursor: pointer; user-select: none;&quot; data-line-number=&quot;21&quot; class=&quot;blob-num js-line-number js-code-nav-line-number js-blob-rnum&quot; id=&quot;L21&quot;&gt;&lt;/td&gt;&lt;td style=&quot;box-sizing: border-box; padding: 0px 10px; position: relative; line-height: 20px; vertical-align: top; display: table-cell; overflow: visible; font-family: ui-monospace, SFMono-Regular, &amp;quot;SF Mono&amp;quot;, Menlo, Consolas, &amp;quot;Liberation Mono&amp;quot;, monospace; font-size: 12px; color: var(--color-fg-default); overflow-wrap: anywhere;&quot; class=&quot;blob-code blob-code-inner js-file-line&quot; id=&quot;LC21&quot;&gt;    &lt;span style=&quot;box-sizing: border-box;&quot; class=&quot;pl-s1&quot;&gt;parser&lt;/span&gt;.&lt;span style=&quot;box-sizing: border-box; color: var(--color-prettylights-syntax-entity);&quot; class=&quot;pl-en&quot;&gt;add_argument&lt;/span&gt;(&lt;span style=&quot;box-sizing: border-box; color: var(--color-prettylights-syntax-string);&quot; class=&quot;pl-s&quot;&gt;&#39;-model&#39;&lt;/span&gt;, &lt;span style=&quot;box-sizing: border-box;&quot; class=&quot;pl-s1&quot;&gt;type&lt;/span&gt;&lt;span style=&quot;box-sizing: border-box; color: var(--color-prettylights-syntax-constant);&quot; class=&quot;pl-c1&quot;&gt;=&lt;/span&gt;&lt;span style=&quot;box-sizing: border-box;&quot; class=&quot;pl-s1&quot;&gt;str&lt;/span&gt;, &lt;span style=&quot;box-sizing: border-box;&quot; class=&quot;pl-s1&quot;&gt;default&lt;/span&gt;&lt;span style=&quot;box-sizing: border-box; color: var(--color-prettylights-syntax-constant);&quot; class=&quot;pl-c1&quot;&gt;=&lt;/span&gt;&lt;span style=&quot;box-sizing: border-box; color: var(--color-prettylights-syntax-constant);&quot; class=&quot;pl-c1&quot;&gt;None&lt;/span&gt;, &lt;span style=&quot;box-sizing: border-box;&quot; class=&quot;pl-s1&quot;&gt;help&lt;/span&gt;&lt;span style=&quot;box-sizing: border-box; color: var(--color-prettylights-syntax-constant);&quot; class=&quot;pl-c1&quot;&gt;=&lt;/span&gt;&lt;span style=&quot;box-sizing: border-box; color: var(--color-prettylights-syntax-string);&quot; class=&quot;pl-s&quot;&gt;&#39;&#39;&lt;/span&gt;)&lt;/td&gt;&lt;/tr&gt;&lt;tr style=&quot;box-sizing: border-box; background-color: transparent;&quot;&gt;&lt;td style=&quot;box-sizing: border-box; padding: 0px 10px; position: relative; width: 50px; min-width: 50px; font-family: ui-monospace, SFMono-Regular, &amp;quot;SF Mono&amp;quot;, Menlo, Consolas, &amp;quot;Liberation Mono&amp;quot;, monospace; font-size: 12px; line-height: 20px; color: var(--color-fg-subtle); text-align: right; vertical-align: top; cursor: pointer; user-select: none;&quot; data-line-number=&quot;22&quot; class=&quot;blob-num js-line-number js-code-nav-line-number js-blob-rnum&quot; id=&quot;L22&quot;&gt;&lt;/td&gt;&lt;td style=&quot;box-sizing: border-box; padding: 0px 10px; position: relative; line-height: 20px; vertical-align: top; display: table-cell; overflow: visible; font-family: ui-monospace, SFMono-Regular, &amp;quot;SF Mono&amp;quot;, Menlo, Consolas, &amp;quot;Liberation Mono&amp;quot;, monospace; font-size: 12px; color: var(--color-fg-default); overflow-wrap: anywhere;&quot; class=&quot;blob-code blob-code-inner js-file-line&quot; id=&quot;LC22&quot;&gt;    &lt;span style=&quot;box-sizing: border-box;&quot; class=&quot;pl-s1&quot;&gt;parser&lt;/span&gt;.&lt;span style=&quot;box-sizing: border-box; color: var(--color-prettylights-syntax-entity);&quot; class=&quot;pl-en&quot;&gt;add_argument&lt;/span&gt;(&lt;span style=&quot;box-sizing: border-box; color: var(--color-prettylights-syntax-string);&quot; class=&quot;pl-s&quot;&gt;&#39;-price_from&#39;&lt;/span&gt;, &lt;span style=&quot;box-sizing: border-box;&quot; class=&quot;pl-s1&quot;&gt;type&lt;/span&gt;&lt;span style=&quot;box-sizing: border-box; color: var(--color-prettylights-syntax-constant);&quot; class=&quot;pl-c1&quot;&gt;=&lt;/span&gt;&lt;span style=&quot;box-sizing: border-box;&quot; class=&quot;pl-s1&quot;&gt;int&lt;/span&gt;, &lt;span style=&quot;box-sizing: border-box;&quot; class=&quot;pl-s1&quot;&gt;default&lt;/span&gt;&lt;span style=&quot;box-sizing: border-box; color: var(--color-prettylights-syntax-constant);&quot; class=&quot;pl-c1&quot;&gt;=&lt;/span&gt;&lt;span style=&quot;box-sizing: border-box; color: var(--color-prettylights-syntax-constant);&quot; class=&quot;pl-c1&quot;&gt;None&lt;/span&gt;, &lt;span style=&quot;box-sizing: border-box;&quot; class=&quot;pl-s1&quot;&gt;help&lt;/span&gt;&lt;span style=&quot;box-sizing: border-box; color: var(--color-prettylights-syntax-constant);&quot; class=&quot;pl-c1&quot;&gt;=&lt;/span&gt;&lt;span style=&quot;box-sizing: border-box; color: var(--color-prettylights-syntax-string);&quot; class=&quot;pl-s&quot;&gt;&#39;supported only USD values&#39;&lt;/span&gt;)&lt;/td&gt;&lt;/tr&gt;&lt;tr style=&quot;box-sizing: border-box;&quot;&gt;&lt;td style=&quot;box-sizing: border-box; padding: 0px 10px; position: relative; width: 50px; min-width: 50px; font-family: ui-monospace, SFMono-Regular, &amp;quot;SF Mono&amp;quot;, Menlo, Consolas, &amp;quot;Liberation Mono&amp;quot;, monospace; font-size: 12px; line-height: 20px; color: var(--color-fg-subtle); text-align: right; vertical-align: top; cursor: pointer; user-select: none;&quot; data-line-number=&quot;23&quot; class=&quot;blob-num js-line-number js-code-nav-line-number js-blob-rnum&quot; id=&quot;L23&quot;&gt;&lt;/td&gt;&lt;td style=&quot;box-sizing: border-box; padding: 0px 10px; position: relative; line-height: 20px; vertical-align: top; display: table-cell; overflow: visible; font-family: ui-monospace, SFMono-Regular, &amp;quot;SF Mono&amp;quot;, Menlo, Consolas, &amp;quot;Liberation Mono&amp;quot;, monospace; font-size: 12px; color: var(--color-fg-default); overflow-wrap: anywhere;&quot; class=&quot;blob-code blob-code-inner js-file-line&quot; id=&quot;LC23&quot;&gt;    &lt;span style=&quot;box-sizing: border-box;&quot; class=&quot;pl-s1&quot;&gt;parser&lt;/span&gt;.&lt;span style=&quot;box-sizing: border-box; color: var(--color-prettylights-syntax-entity);&quot; class=&quot;pl-en&quot;&gt;add_argument&lt;/span&gt;(&lt;span style=&quot;box-sizing: border-box; color: var(--color-prettylights-syntax-string);&quot; class=&quot;pl-s&quot;&gt;&#39;-price_to&#39;&lt;/span&gt;, &lt;span style=&quot;box-sizing: border-box;&quot; class=&quot;pl-s1&quot;&gt;type&lt;/span&gt;&lt;span style=&quot;box-sizing: border-box; color: var(--color-prettylights-syntax-constant);&quot; class=&quot;pl-c1&quot;&gt;=&lt;/span&gt;&lt;span style=&quot;box-sizing: border-box;&quot; class=&quot;pl-s1&quot;&gt;int&lt;/span&gt;, &lt;span style=&quot;box-sizing: border-box;&quot; class=&quot;pl-s1&quot;&gt;default&lt;/span&gt;&lt;span style=&quot;box-sizing: border-box; color: var(--color-prettylights-syntax-constant);&quot; class=&quot;pl-c1&quot;&gt;=&lt;/span&gt;&lt;span style=&quot;box-sizing: border-box; color: var(--color-prettylights-syntax-constant);&quot; class=&quot;pl-c1&quot;&gt;None&lt;/span&gt;, &lt;span style=&quot;box-sizing: border-box;&quot; class=&quot;pl-s1&quot;&gt;help&lt;/span&gt;&lt;span style=&quot;box-sizing: border-box; color: var(--color-prettylights-syntax-constant);&quot; class=&quot;pl-c1&quot;&gt;=&lt;/span&gt;&lt;span style=&quot;box-sizing: border-box; color: var(--color-prettylights-syntax-string);&quot; class=&quot;pl-s&quot;&gt;&#39;supported only USD values&#39;&lt;/span&gt;)&lt;/td&gt;&lt;/tr&gt;&lt;tr style=&quot;box-sizing: border-box; background-color: transparent;&quot;&gt;&lt;td style=&quot;box-sizing: border-box; padding: 0px 10px; position: relative; width: 50px; min-width: 50px; font-family: ui-monospace, SFMono-Regular, &amp;quot;SF Mono&amp;quot;, Menlo, Consolas, &amp;quot;Liberation Mono&amp;quot;, monospace; font-size: 12px; line-height: 20px; color: var(--color-fg-subtle); text-align: right; vertical-align: top; cursor: pointer; user-select: none;&quot; data-line-number=&quot;24&quot; class=&quot;blob-num js-line-number js-code-nav-line-number js-blob-rnum&quot; id=&quot;L24&quot;&gt;&lt;/td&gt;&lt;td style=&quot;box-sizing: border-box; padding: 0px 10px; position: relative; line-height: 20px; vertical-align: top; display: table-cell; overflow: visible; font-family: ui-monospace, SFMono-Regular, &amp;quot;SF Mono&amp;quot;, Menlo, Consolas, &amp;quot;Liberation Mono&amp;quot;, monospace; font-size: 12px; color: var(--color-fg-default); overflow-wrap: anywhere;&quot; class=&quot;blob-code blob-code-inner js-file-line&quot; id=&quot;LC24&quot;&gt;    &lt;span style=&quot;box-sizing: border-box;&quot; class=&quot;pl-s1&quot;&gt;parser&lt;/span&gt;.&lt;span style=&quot;box-sizing: border-box; color: var(--color-prettylights-syntax-entity);&quot; class=&quot;pl-en&quot;&gt;add_argument&lt;/span&gt;(&lt;span style=&quot;box-sizing: border-box; color: var(--color-prettylights-syntax-string);&quot; class=&quot;pl-s&quot;&gt;&#39;-transmission&#39;&lt;/span&gt;, &lt;span style=&quot;box-sizing: border-box;&quot; class=&quot;pl-s1&quot;&gt;type&lt;/span&gt;&lt;span style=&quot;box-sizing: border-box; color: var(--color-prettylights-syntax-constant);&quot; class=&quot;pl-c1&quot;&gt;=&lt;/span&gt;&lt;span style=&quot;box-sizing: border-box;&quot; class=&quot;pl-s1&quot;&gt;str&lt;/span&gt;, &lt;span style=&quot;box-sizing: border-box;&quot; class=&quot;pl-s1&quot;&gt;default&lt;/span&gt;&lt;span style=&quot;box-sizing: border-box; color: var(--color-prettylights-syntax-constant);&quot; class=&quot;pl-c1&quot;&gt;=&lt;/span&gt;&lt;span style=&quot;box-sizing: border-box; color: var(--color-prettylights-syntax-constant);&quot; class=&quot;pl-c1&quot;&gt;None&lt;/span&gt;, &lt;span style=&quot;box-sizing: border-box;&quot; class=&quot;pl-s1&quot;&gt;help&lt;/span&gt;&lt;span style=&quot;box-sizing: border-box; color: var(--color-prettylights-syntax-constant);&quot; class=&quot;pl-c1&quot;&gt;=&lt;/span&gt;&lt;span style=&quot;box-sizing: border-box; color: var(--color-prettylights-syntax-string);&quot; class=&quot;pl-s&quot;&gt;&#39;&#39;&lt;/span&gt;)&lt;/td&gt;&lt;/tr&gt;&lt;tr style=&quot;box-sizing: border-box;&quot;&gt;&lt;td style=&quot;box-sizing: border-box; padding: 0px 10px; position: relative; width: 50px; min-width: 50px; font-family: ui-monospace, SFMono-Regular, &amp;quot;SF Mono&amp;quot;, Menlo, Consolas, &amp;quot;Liberation Mono&amp;quot;, monospace; font-size: 12px; line-height: 20px; color: var(--color-fg-subtle); text-align: right; vertical-align: top; cursor: pointer; user-select: none;&quot; data-line-number=&quot;25&quot; class=&quot;blob-num js-line-number js-code-nav-line-number js-blob-rnum&quot; id=&quot;L25&quot;&gt;&lt;/td&gt;&lt;td style=&quot;box-sizing: border-box; padding: 0px 10px; position: relative; line-height: 20px; vertical-align: top; display: table-cell; overflow: visible; font-family: ui-monospace, SFMono-Regular, &amp;quot;SF Mono&amp;quot;, Menlo, Consolas, &amp;quot;Liberation Mono&amp;quot;, monospace; font-size: 12px; color: var(--color-fg-default); overflow-wrap: anywhere;&quot; class=&quot;blob-code blob-code-inner js-file-line&quot; id=&quot;LC25&quot;&gt;    &lt;span style=&quot;box-sizing: border-box;&quot; class=&quot;pl-s1&quot;&gt;parser&lt;/span&gt;.&lt;span style=&quot;box-sizing: border-box; color: var(--color-prettylights-syntax-entity);&quot; class=&quot;pl-en&quot;&gt;add_argument&lt;/span&gt;(&lt;span style=&quot;box-sizing: border-box; color: var(--color-prettylights-syntax-string);&quot; class=&quot;pl-s&quot;&gt;&#39;-mileage&#39;&lt;/span&gt;, &lt;span style=&quot;box-sizing: border-box;&quot; class=&quot;pl-s1&quot;&gt;type&lt;/span&gt;&lt;span style=&quot;box-sizing: border-box; color: var(--color-prettylights-syntax-constant);&quot; class=&quot;pl-c1&quot;&gt;=&lt;/span&gt;&lt;span style=&quot;box-sizing: border-box;&quot; class=&quot;pl-s1&quot;&gt;int&lt;/span&gt;, &lt;span style=&quot;box-sizing: border-box;&quot; class=&quot;pl-s1&quot;&gt;default&lt;/span&gt;&lt;span style=&quot;box-sizing: border-box; color: var(--color-prettylights-syntax-constant);&quot; class=&quot;pl-c1&quot;&gt;=&lt;/span&gt;&lt;span style=&quot;box-sizing: border-box; color: var(--color-prettylights-syntax-constant);&quot; class=&quot;pl-c1&quot;&gt;None&lt;/span&gt;, &lt;span style=&quot;box-sizing: border-box;&quot; class=&quot;pl-s1&quot;&gt;help&lt;/span&gt;&lt;span style=&quot;box-sizing: border-box; color: var(--color-prettylights-syntax-constant);&quot; class=&quot;pl-c1&quot;&gt;=&lt;/span&gt;&lt;span style=&quot;box-sizing: border-box; color: var(--color-prettylights-syntax-string);&quot; class=&quot;pl-s&quot;&gt;&#39;please put value in km&#39;&lt;/span&gt;)&lt;/td&gt;&lt;/tr&gt;&lt;tr style=&quot;box-sizing: border-box; background-color: transparent;&quot;&gt;&lt;td style=&quot;box-sizing: border-box; padding: 0px 10px; position: relative; width: 50px; min-width: 50px; font-family: ui-monospace, SFMono-Regular, &amp;quot;SF Mono&amp;quot;, Menlo, Consolas, &amp;quot;Liberation Mono&amp;quot;, monospace; font-size: 12px; line-height: 20px; color: var(--color-fg-subtle); text-align: right; vertical-align: top; cursor: pointer; user-select: none;&quot; data-line-number=&quot;26&quot; class=&quot;blob-num js-line-number js-code-nav-line-number js-blob-rnum&quot; id=&quot;L26&quot;&gt;&lt;/td&gt;&lt;td style=&quot;box-sizing: border-box; padding: 0px 10px; position: relative; line-height: 20px; vertical-align: top; display: table-cell; overflow: visible; font-family: ui-monospace, SFMono-Regular, &amp;quot;SF Mono&amp;quot;, Menlo, Consolas, &amp;quot;Liberation Mono&amp;quot;, monospace; font-size: 12px; color: var(--color-fg-default); overflow-wrap: anywhere;&quot; class=&quot;blob-code blob-code-inner js-file-line&quot; id=&quot;LC26&quot;&gt;    &lt;span style=&quot;box-sizing: border-box;&quot; class=&quot;pl-s1&quot;&gt;parser&lt;/span&gt;.&lt;span style=&quot;box-sizing: border-box; color: var(--color-prettylights-syntax-entity);&quot; class=&quot;pl-en&quot;&gt;add_argument&lt;/span&gt;(&lt;span style=&quot;box-sizing: border-box; color: var(--color-prettylights-syntax-string);&quot; class=&quot;pl-s&quot;&gt;&#39;-body&#39;&lt;/span&gt;, &lt;span style=&quot;box-sizing: border-box;&quot; class=&quot;pl-s1&quot;&gt;type&lt;/span&gt;&lt;span style=&quot;box-sizing: border-box; color: var(--color-prettylights-syntax-constant);&quot; class=&quot;pl-c1&quot;&gt;=&lt;/span&gt;&lt;span style=&quot;box-sizing: border-box;&quot; class=&quot;pl-s1&quot;&gt;str&lt;/span&gt;, &lt;span style=&quot;box-sizing: border-box;&quot; class=&quot;pl-s1&quot;&gt;default&lt;/span&gt;&lt;span style=&quot;box-sizing: border-box; color: var(--color-prettylights-syntax-constant);&quot; class=&quot;pl-c1&quot;&gt;=&lt;/span&gt;&lt;span style=&quot;box-sizing: border-box; color: var(--color-prettylights-syntax-constant);&quot; class=&quot;pl-c1&quot;&gt;None&lt;/span&gt;, &lt;span style=&quot;box-sizing: border-box;&quot; class=&quot;pl-s1&quot;&gt;help&lt;/span&gt;&lt;span style=&quot;box-sizing: border-box; color: var(--color-prettylights-syntax-constant);&quot; class=&quot;pl-c1&quot;&gt;=&lt;/span&gt;&lt;span style=&quot;box-sizing: border-box; color: var(--color-prettylights-syntax-string);&quot; class=&quot;pl-s&quot;&gt;&#39;&#39;&lt;/span&gt;)&lt;/td&gt;&lt;/tr&gt;&lt;tr style=&quot;box-sizing: border-box;&quot;&gt;&lt;td style=&quot;box-sizing: border-box; padding: 0px 10px; position: relative; width: 50px; min-width: 50px; font-family: ui-monospace, SFMono-Regular, &amp;quot;SF Mono&amp;quot;, Menlo, Consolas, &amp;quot;Liberation Mono&amp;quot;, monospace; font-size: 12px; line-height: 20px; color: var(--color-fg-subtle); text-align: right; vertical-align: top; cursor: pointer; user-select: none;&quot; data-line-number=&quot;27&quot; class=&quot;blob-num js-line-number js-code-nav-line-number js-blob-rnum&quot; id=&quot;L27&quot;&gt;&lt;/td&gt;&lt;td style=&quot;box-sizing: border-box; padding: 0px 10px; position: relative; line-height: 20px; vertical-align: top; display: table-cell; overflow: visible; font-family: ui-monospace, SFMono-Regular, &amp;quot;SF Mono&amp;quot;, Menlo, Consolas, &amp;quot;Liberation Mono&amp;quot;, monospace; font-size: 12px; color: var(--color-fg-default); overflow-wrap: anywhere;&quot; class=&quot;blob-code blob-code-inner js-file-line&quot; id=&quot;LC27&quot;&gt;    &lt;span style=&quot;box-sizing: border-box;&quot; class=&quot;pl-s1&quot;&gt;parser&lt;/span&gt;.&lt;span style=&quot;box-sizing: border-box; color: var(--color-prettylights-syntax-entity);&quot; class=&quot;pl-en&quot;&gt;add_argument&lt;/span&gt;(&lt;span style=&quot;box-sizing: border-box; color: var(--color-prettylights-syntax-string);&quot; class=&quot;pl-s&quot;&gt;&#39;-engine_from&#39;&lt;/span&gt;, &lt;span style=&quot;box-sizing: border-box;&quot; class=&quot;pl-s1&quot;&gt;type&lt;/span&gt;&lt;span style=&quot;box-sizing: border-box; color: var(--color-prettylights-syntax-constant);&quot; class=&quot;pl-c1&quot;&gt;=&lt;/span&gt;&lt;span style=&quot;box-sizing: border-box;&quot; class=&quot;pl-s1&quot;&gt;int&lt;/span&gt;, &lt;span style=&quot;box-sizing: border-box;&quot; class=&quot;pl-s1&quot;&gt;default&lt;/span&gt;&lt;span style=&quot;box-sizing: border-box; color: var(--color-prettylights-syntax-constant);&quot; class=&quot;pl-c1&quot;&gt;=&lt;/span&gt;&lt;span style=&quot;box-sizing: border-box; color: var(--color-prettylights-syntax-constant);&quot; class=&quot;pl-c1&quot;&gt;None&lt;/span&gt;, &lt;span style=&quot;box-sizing: border-box;&quot; class=&quot;pl-s1&quot;&gt;help&lt;/span&gt;&lt;span style=&quot;box-sizing: border-box; color: var(--color-prettylights-syntax-constant);&quot; class=&quot;pl-c1&quot;&gt;=&lt;/span&gt;&lt;span style=&quot;box-sizing: border-box; color: var(--color-prettylights-syntax-string);&quot; class=&quot;pl-s&quot;&gt;&#39;please put value in ml&#39;&lt;/span&gt;)&lt;/td&gt;&lt;/tr&gt;&lt;tr style=&quot;box-sizing: border-box; background-color: transparent;&quot;&gt;&lt;td style=&quot;box-sizing: border-box; padding: 0px 10px; position: relative; width: 50px; min-width: 50px; font-family: ui-monospace, SFMono-Regular, &amp;quot;SF Mono&amp;quot;, Menlo, Consolas, &amp;quot;Liberation Mono&amp;quot;, monospace; font-size: 12px; line-height: 20px; color: var(--color-fg-subtle); text-align: right; vertical-align: top; cursor: pointer; user-select: none;&quot; data-line-number=&quot;28&quot; class=&quot;blob-num js-line-number js-code-nav-line-number js-blob-rnum&quot; id=&quot;L28&quot;&gt;&lt;/td&gt;&lt;td style=&quot;box-sizing: border-box; padding: 0px 10px; position: relative; line-height: 20px; vertical-align: top; display: table-cell; overflow: visible; font-family: ui-monospace, SFMono-Regular, &amp;quot;SF Mono&amp;quot;, Menlo, Consolas, &amp;quot;Liberation Mono&amp;quot;, monospace; font-size: 12px; color: var(--color-fg-default); overflow-wrap: anywhere;&quot; class=&quot;blob-code blob-code-inner js-file-line&quot; id=&quot;LC28&quot;&gt;    &lt;span style=&quot;box-sizing: border-box;&quot; class=&quot;pl-s1&quot;&gt;parser&lt;/span&gt;.&lt;span style=&quot;box-sizing: border-box; color: var(--color-prettylights-syntax-entity);&quot; class=&quot;pl-en&quot;&gt;add_argument&lt;/span&gt;(&lt;span style=&quot;box-sizing: border-box; color: var(--color-prettylights-syntax-string);&quot; class=&quot;pl-s&quot;&gt;&#39;-engine_to&#39;&lt;/span&gt;, &lt;span style=&quot;box-sizing: border-box;&quot; class=&quot;pl-s1&quot;&gt;type&lt;/span&gt;&lt;span style=&quot;box-sizing: border-box; color: var(--color-prettylights-syntax-constant);&quot; class=&quot;pl-c1&quot;&gt;=&lt;/span&gt;&lt;span style=&quot;box-sizing: border-box;&quot; class=&quot;pl-s1&quot;&gt;int&lt;/span&gt;, &lt;span style=&quot;box-sizing: border-box;&quot; class=&quot;pl-s1&quot;&gt;default&lt;/span&gt;&lt;span style=&quot;box-sizing: border-box; color: var(--color-prettylights-syntax-constant);&quot; class=&quot;pl-c1&quot;&gt;=&lt;/span&gt;&lt;span style=&quot;box-sizing: border-box; color: var(--color-prettylights-syntax-constant);&quot; class=&quot;pl-c1&quot;&gt;None&lt;/span&gt;, &lt;span style=&quot;box-sizing: border-box;&quot; class=&quot;pl-s1&quot;&gt;help&lt;/span&gt;&lt;span style=&quot;box-sizing: border-box; color: var(--color-prettylights-syntax-constant);&quot; class=&quot;pl-c1&quot;&gt;=&lt;/span&gt;&lt;span style=&quot;box-sizing: border-box; color: var(--color-prettylights-syntax-string);&quot; class=&quot;pl-s&quot;&gt;&#39;please put value in ml&#39;&lt;/span&gt;)&lt;/td&gt;&lt;/tr&gt;&lt;tr style=&quot;box-sizing: border-box;&quot;&gt;&lt;td style=&quot;box-sizing: border-box; padding: 0px 10px; position: relative; width: 50px; min-width: 50px; font-family: ui-monospace, SFMono-Regular, &amp;quot;SF Mono&amp;quot;, Menlo, Consolas, &amp;quot;Liberation Mono&amp;quot;, monospace; font-size: 12px; line-height: 20px; color: var(--color-fg-subtle); text-align: right; vertical-align: top; cursor: pointer; user-select: none;&quot; data-line-number=&quot;29&quot; class=&quot;blob-num js-line-number js-code-nav-line-number js-blob-rnum&quot; id=&quot;L29&quot;&gt;&lt;/td&gt;&lt;td style=&quot;box-sizing: border-box; padding: 0px 10px; position: relative; line-height: 20px; vertical-align: top; display: table-cell; overflow: visible; font-family: ui-monospace, SFMono-Regular, &amp;quot;SF Mono&amp;quot;, Menlo, Consolas, &amp;quot;Liberation Mono&amp;quot;, monospace; font-size: 12px; color: var(--color-fg-default); overflow-wrap: anywhere;&quot; class=&quot;blob-code blob-code-inner js-file-line&quot; id=&quot;LC29&quot;&gt;    &lt;span style=&quot;box-sizing: border-box;&quot; class=&quot;pl-s1&quot;&gt;parser&lt;/span&gt;.&lt;span style=&quot;box-sizing: border-box; color: var(--color-prettylights-syntax-entity);&quot; class=&quot;pl-en&quot;&gt;add_argument&lt;/span&gt;(&lt;span style=&quot;box-sizing: border-box; color: var(--color-prettylights-syntax-string);&quot; class=&quot;pl-s&quot;&gt;&#39;-fuel&#39;&lt;/span&gt;, &lt;span style=&quot;box-sizing: border-box;&quot; class=&quot;pl-s1&quot;&gt;type&lt;/span&gt;&lt;span style=&quot;box-sizing: border-box; color: var(--color-prettylights-syntax-constant);&quot; class=&quot;pl-c1&quot;&gt;=&lt;/span&gt;&lt;span style=&quot;box-sizing: border-box;&quot; class=&quot;pl-s1&quot;&gt;str&lt;/span&gt;, &lt;span style=&quot;box-sizing: border-box;&quot; class=&quot;pl-s1&quot;&gt;default&lt;/span&gt;&lt;span style=&quot;box-sizing: border-box; color: var(--color-prettylights-syntax-constant);&quot; class=&quot;pl-c1&quot;&gt;=&lt;/span&gt;&lt;span style=&quot;box-sizing: border-box; color: var(--color-prettylights-syntax-constant);&quot; class=&quot;pl-c1&quot;&gt;None&lt;/span&gt;, &lt;span style=&quot;box-sizing: border-box;&quot; class=&quot;pl-s1&quot;&gt;help&lt;/span&gt;&lt;span style=&quot;box-sizing: border-box; color: var(--color-prettylights-syntax-constant);&quot; class=&quot;pl-c1&quot;&gt;=&lt;/span&gt;&lt;span style=&quot;box-sizing: border-box; color: var(--color-prettylights-syntax-string);&quot; class=&quot;pl-s&quot;&gt;&#39;&#39;&lt;/span&gt;)&lt;/td&gt;&lt;/tr&gt;&lt;tr style=&quot;box-sizing: border-box; background-color: transparent;&quot;&gt;&lt;td style=&quot;box-sizing: border-box; padding: 0px 10px; position: relative; width: 50px; min-width: 50px; font-family: ui-monospace, SFMono-Regular, &amp;quot;SF Mono&amp;quot;, Menlo, Consolas, &amp;quot;Liberation Mono&amp;quot;, monospace; font-size: 12px; line-height: 20px; color: var(--color-fg-subtle); text-align: right; vertical-align: top; cursor: pointer; user-select: none;&quot; data-line-number=&quot;30&quot; class=&quot;blob-num js-line-number js-code-nav-line-number js-blob-rnum&quot; id=&quot;L30&quot;&gt;&lt;/td&gt;&lt;td style=&quot;box-sizing: border-box; padding: 0px 10px; position: relative; line-height: 20px; vertical-align: top; display: table-cell; overflow: visible; font-family: ui-monospace, SFMono-Regular, &amp;quot;SF Mono&amp;quot;, Menlo, Consolas, &amp;quot;Liberation Mono&amp;quot;, monospace; font-size: 12px; color: var(--color-fg-default); overflow-wrap: anywhere;&quot; class=&quot;blob-code blob-code-inner js-file-line&quot; id=&quot;LC30&quot;&gt;    &lt;span style=&quot;box-sizing: border-box;&quot; class=&quot;pl-s1&quot;&gt;parser&lt;/span&gt;.&lt;span style=&quot;box-sizing: border-box; color: var(--color-prettylights-syntax-entity);&quot; class=&quot;pl-en&quot;&gt;add_argument&lt;/span&gt;(&lt;span style=&quot;box-sizing: border-box; color: var(--color-prettylights-syntax-string);&quot; class=&quot;pl-s&quot;&gt;&#39;-exchange&#39;&lt;/span&gt;, &lt;span style=&quot;box-sizing: border-box;&quot; class=&quot;pl-s1&quot;&gt;type&lt;/span&gt;&lt;span style=&quot;box-sizing: border-box; color: var(--color-prettylights-syntax-constant);&quot; class=&quot;pl-c1&quot;&gt;=&lt;/span&gt;&lt;span style=&quot;box-sizing: border-box;&quot; class=&quot;pl-s1&quot;&gt;str&lt;/span&gt;, &lt;span style=&quot;box-sizing: border-box;&quot; class=&quot;pl-s1&quot;&gt;default&lt;/span&gt;&lt;span style=&quot;box-sizing: border-box; color: var(--color-prettylights-syntax-constant);&quot; class=&quot;pl-c1&quot;&gt;=&lt;/span&gt;&lt;span style=&quot;box-sizing: border-box; color: var(--color-prettylights-syntax-constant);&quot; class=&quot;pl-c1&quot;&gt;None&lt;/span&gt;, &lt;span style=&quot;box-sizing: border-box;&quot; class=&quot;pl-s1&quot;&gt;help&lt;/span&gt;&lt;span style=&quot;box-sizing: border-box; color: var(--color-prettylights-syntax-constant);&quot; class=&quot;pl-c1&quot;&gt;=&lt;/span&gt;&lt;span style=&quot;box-sizing: border-box; color: var(--color-prettylights-syntax-string);&quot; class=&quot;pl-s&quot;&gt;&#39;please put Yes or NO value&#39;&lt;/span&gt;)&lt;/td&gt;&lt;/tr&gt;&lt;tr style=&quot;box-sizing: border-box;&quot;&gt;&lt;td style=&quot;box-sizing: border-box; padding: 0px 10px; position: relative; width: 50px; min-width: 50px; font-family: ui-monospace, SFMono-Regular, &amp;quot;SF Mono&amp;quot;, Menlo, Consolas, &amp;quot;Liberation Mono&amp;quot;, monospace; font-size: 12px; line-height: 20px; color: var(--color-fg-subtle); text-align: right; vertical-align: top; cursor: pointer; user-select: none;&quot; data-line-number=&quot;31&quot; class=&quot;blob-num js-line-number js-code-nav-line-number js-blob-rnum&quot; id=&quot;L31&quot;&gt;&lt;/td&gt;&lt;td style=&quot;box-sizing: border-box; padding: 0px 10px; position: relative; line-height: 20px; vertical-align: top; display: table-cell; overflow: visible; font-family: ui-monospace, SFMono-Regular, &amp;quot;SF Mono&amp;quot;, Menlo, Consolas, &amp;quot;Liberation Mono&amp;quot;, monospace; font-size: 12px; color: var(--color-fg-default); overflow-wrap: anywhere;&quot; class=&quot;blob-code blob-code-inner js-file-line&quot; id=&quot;LC31&quot;&gt;    &lt;span style=&quot;box-sizing: border-box;&quot; class=&quot;pl-s1&quot;&gt;parser&lt;/span&gt;.&lt;span style=&quot;box-sizing: border-box; color: var(--color-prettylights-syntax-entity);&quot; class=&quot;pl-en&quot;&gt;add_argument&lt;/span&gt;(&lt;span style=&quot;box-sizing: border-box; color: var(--color-prettylights-syntax-string);&quot; class=&quot;pl-s&quot;&gt;&#39;-keywords&#39;&lt;/span&gt;, &lt;span style=&quot;box-sizing: border-box;&quot; class=&quot;pl-s1&quot;&gt;type&lt;/span&gt;&lt;span style=&quot;box-sizing: border-box; color: var(--color-prettylights-syntax-constant);&quot; class=&quot;pl-c1&quot;&gt;=&lt;/span&gt;&lt;span style=&quot;box-sizing: border-box;&quot; class=&quot;pl-s1&quot;&gt;str&lt;/span&gt;, &lt;span style=&quot;box-sizing: border-box;&quot; class=&quot;pl-s1&quot;&gt;default&lt;/span&gt;&lt;span style=&quot;box-sizing: border-box; color: var(--color-prettylights-syntax-constant);&quot; class=&quot;pl-c1&quot;&gt;=&lt;/span&gt;&lt;span style=&quot;box-sizing: border-box; color: var(--color-prettylights-syntax-constant);&quot; class=&quot;pl-c1&quot;&gt;None&lt;/span&gt;, &lt;span style=&quot;box-sizing: border-box;&quot; class=&quot;pl-s1&quot;&gt;help&lt;/span&gt;&lt;span style=&quot;box-sizing: border-box; color: var(--color-prettylights-syntax-constant);&quot; class=&quot;pl-c1&quot;&gt;=&lt;/span&gt;&lt;span style=&quot;box-sizing: border-box; color: var(--color-prettylights-syntax-string);&quot; class=&quot;pl-s&quot;&gt;&#39;please put additional 1 word for searching&#39;&lt;/span&gt;)&lt;/td&gt;&lt;/tr&gt;&lt;tr style=&quot;box-sizing: border-box; background-color: transparent;&quot;&gt;&lt;td style=&quot;box-sizing: border-box; padding: 0px 10px; position: relative; width: 50px; min-width: 50px; font-family: ui-monospace, SFMono-Regular, &amp;quot;SF Mono&amp;quot;, Menlo, Consolas, &amp;quot;Liberation Mono&amp;quot;, monospace; font-size: 12px; line-height: 20px; color: var(--color-fg-subtle); text-align: right; vertical-align: top; cursor: pointer; user-select: none;&quot; data-line-number=&quot;32&quot; class=&quot;blob-num js-line-number js-code-nav-line-number js-blob-rnum&quot; id=&quot;L32&quot;&gt;&lt;/td&gt;&lt;td style=&quot;box-sizing: border-box; padding: 0px 10px; position: relative; line-height: 20px; vertical-align: top; display: table-cell; overflow: visible; font-family: ui-monospace, SFMono-Regular, &amp;quot;SF Mono&amp;quot;, Menlo, Consolas, &amp;quot;Liberation Mono&amp;quot;, monospace; font-size: 12px; color: var(--color-fg-default); overflow-wrap: anywhere;&quot; class=&quot;blob-code blob-code-inner js-file-line&quot; id=&quot;LC32&quot;&gt;    &lt;span style=&quot;box-sizing: border-box;&quot; class=&quot;pl-s1&quot;&gt;parser&lt;/span&gt;.&lt;span style=&quot;box-sizing: border-box; color: var(--color-prettylights-syntax-entity);&quot; class=&quot;pl-en&quot;&gt;add_argument&lt;/span&gt;(&lt;span style=&quot;box-sizing: border-box; color: var(--color-prettylights-syntax-string);&quot; class=&quot;pl-s&quot;&gt;&#39;-max_records&#39;&lt;/span&gt;, &lt;span style=&quot;box-sizing: border-box;&quot; class=&quot;pl-s1&quot;&gt;type&lt;/span&gt;&lt;span style=&quot;box-sizing: border-box; color: var(--color-prettylights-syntax-constant);&quot; class=&quot;pl-c1&quot;&gt;=&lt;/span&gt;&lt;span style=&quot;box-sizing: border-box;&quot; class=&quot;pl-s1&quot;&gt;int&lt;/span&gt;, &lt;span style=&quot;box-sizing: border-box;&quot; class=&quot;pl-s1&quot;&gt;default&lt;/span&gt;&lt;span style=&quot;box-sizing: border-box; color: var(--color-prettylights-syntax-constant);&quot; class=&quot;pl-c1&quot;&gt;=&lt;/span&gt;&lt;span style=&quot;box-sizing: border-box; color: var(--color-prettylights-syntax-constant);&quot; class=&quot;pl-c1&quot;&gt;20&lt;/span&gt;, &lt;span style=&quot;box-sizing: border-box;&quot; class=&quot;pl-s1&quot;&gt;help&lt;/span&gt;&lt;span style=&quot;box-sizing: border-box; color: var(--color-prettylights-syntax-constant);&quot; class=&quot;pl-c1&quot;&gt;=&lt;/span&gt;&lt;span style=&quot;box-sizing: border-box; color: var(--color-prettylights-syntax-string);&quot; class=&quot;pl-s&quot;&gt;&#39;please put Top N digit value&#39;&lt;/span&gt;)&lt;/td&gt;&lt;/tr&gt;&lt;tr style=&quot;box-sizing: border-box;&quot;&gt;&lt;td style=&quot;box-sizing: border-box; padding: 0px 10px; position: relative; width: 50px; min-width: 50px; font-family: ui-monospace, SFMono-Regular, &amp;quot;SF Mono&amp;quot;, Menlo, Consolas, &amp;quot;Liberation Mono&amp;quot;, monospace; font-size: 12px; line-height: 20px; color: var(--color-fg-subtle); text-align: right; vertical-align: top; cursor: pointer; user-select: none;&quot; data-line-number=&quot;33&quot; class=&quot;blob-num js-line-number js-code-nav-line-number js-blob-rnum&quot; id=&quot;L33&quot;&gt;&lt;/td&gt;&lt;td style=&quot;box-sizing: border-box; padding: 0px 10px; position: relative; line-height: 20px; vertical-align: top; display: table-cell; overflow: visible; font-family: ui-monospace, SFMono-Regular, &amp;quot;SF Mono&amp;quot;, Menlo, Consolas, &amp;quot;Liberation Mono&amp;quot;, monospace; font-size: 12px; color: var(--color-fg-default); overflow-wrap: anywhere;&quot; class=&quot;blob-code blob-code-inner js-file-line&quot; id=&quot;LC33&quot;&gt;    &lt;span style=&quot;box-sizing: border-box;&quot; class=&quot;pl-s1&quot;&gt;parser&lt;/span&gt;.&lt;span style=&quot;box-sizing: border-box; color: var(--color-prettylights-syntax-entity);&quot; class=&quot;pl-en&quot;&gt;add_argument&lt;/span&gt;(&lt;span style=&quot;box-sizing: border-box; color: var(--color-prettylights-syntax-string);&quot; class=&quot;pl-s&quot;&gt;&#39;-source_file&#39;&lt;/span&gt;, &lt;span style=&quot;box-sizing: border-box;&quot; class=&quot;pl-s1&quot;&gt;type&lt;/span&gt;&lt;span style=&quot;box-sizing: border-box; color: var(--color-prettylights-syntax-constant);&quot; class=&quot;pl-c1&quot;&gt;=&lt;/span&gt;&lt;span style=&quot;box-sizing: border-box;&quot; class=&quot;pl-s1&quot;&gt;str&lt;/span&gt;, &lt;span style=&quot;box-sizing: border-box;&quot; class=&quot;pl-s1&quot;&gt;default&lt;/span&gt;&lt;span style=&quot;box-sizing: border-box; color: var(--color-prettylights-syntax-constant);&quot; class=&quot;pl-c1&quot;&gt;=&lt;/span&gt;&lt;span style=&quot;box-sizing: border-box; color: var(--color-prettylights-syntax-string);&quot; class=&quot;pl-s&quot;&gt;&#39;source_data/cars-av-by_card_20230407.csv&#39;&lt;/span&gt;, &lt;span style=&quot;box-sizing: border-box;&quot; class=&quot;pl-s1&quot;&gt;help&lt;/span&gt;&lt;span style=&quot;box-sizing: border-box; color: var(--color-prettylights-syntax-constant);&quot; class=&quot;pl-c1&quot;&gt;=&lt;/span&gt;&lt;span style=&quot;box-sizing: border-box; color: var(--color-prettylights-syntax-string);&quot; class=&quot;pl-s&quot;&gt;&#39;&#39;&lt;/span&gt;)&lt;/td&gt;&lt;/tr&gt;&lt;tr style=&quot;box-sizing: border-box;&quot;&gt;&lt;td style=&quot;box-sizing: border-box; padding: 0px 10px; position: relative; width: 50px; min-width: 50px; font-family: ui-monospace, SFMono-Regular, &amp;quot;SF Mono&amp;quot;, Menlo, Consolas, &amp;quot;Liberation Mono&amp;quot;, monospace; font-size: 12px; line-height: 20px; color: var(--color-fg-subtle); text-align: right; vertical-align: top; cursor: pointer; user-select: none;&quot; data-line-number=&quot;35&quot; class=&quot;blob-num js-line-number js-code-nav-line-number js-blob-rnum&quot; id=&quot;L35&quot;&gt;&lt;/td&gt;&lt;td style=&quot;box-sizing: border-box; padding: 0px 10px; position: relative; line-height: 20px; vertical-align: top; display: table-cell; overflow: visible; font-family: ui-monospace, SFMono-Regular, &amp;quot;SF Mono&amp;quot;, Menlo, Consolas, &amp;quot;Liberation Mono&amp;quot;, monospace; font-size: 12px; color: var(--color-fg-default); overflow-wrap: anywhere;&quot; class=&quot;blob-code blob-code-inner js-file-line&quot; id=&quot;LC35&quot;&gt;    &lt;span style=&quot;box-sizing: border-box;&quot; class=&quot;pl-s1&quot;&gt;parser&lt;/span&gt;.&lt;span style=&quot;box-sizing: border-box; color: var(--color-prettylights-syntax-entity);&quot; class=&quot;pl-en&quot;&gt;add_argument&lt;/span&gt;(&lt;span style=&quot;box-sizing: border-box; color: var(--color-prettylights-syntax-string);&quot; class=&quot;pl-s&quot;&gt;&#39;-debug&#39;&lt;/span&gt;, &lt;span style=&quot;box-sizing: border-box;&quot; class=&quot;pl-s1&quot;&gt;type&lt;/span&gt;&lt;span style=&quot;box-sizing: border-box; color: var(--color-prettylights-syntax-constant);&quot; class=&quot;pl-c1&quot;&gt;=&lt;/span&gt;&lt;span style=&quot;box-sizing: border-box;&quot; class=&quot;pl-s1&quot;&gt;int&lt;/span&gt;, &lt;span style=&quot;box-sizing: border-box;&quot; class=&quot;pl-s1&quot;&gt;default&lt;/span&gt;&lt;span style=&quot;box-sizing: border-box; color: var(--color-prettylights-syntax-constant);&quot; class=&quot;pl-c1&quot;&gt;=&lt;/span&gt;&lt;span style=&quot;box-sizing: border-box; color: var(--color-prettylights-syntax-constant);&quot; class=&quot;pl-c1&quot;&gt;0&lt;/span&gt;, &lt;span style=&quot;box-sizing: border-box;&quot; class=&quot;pl-s1&quot;&gt;help&lt;/span&gt;&lt;span style=&quot;box-sizing: border-box; color: var(--color-prettylights-syntax-constant);&quot; class=&quot;pl-c1&quot;&gt;=&lt;/span&gt;&lt;span style=&quot;box-sizing: border-box; color: var(--color-prettylights-syntax-string);&quot; class=&quot;pl-s&quot;&gt;&#39;if debug flag = 1, the debug proces will run&#39;&lt;/span&gt;)&lt;br&gt;&lt;br&gt;&lt;/td&gt;&lt;/tr&gt;&lt;/tbody&gt;&lt;/table&gt;" style="text;whiteSpace=wrap;html=1;" parent="1" vertex="1">
          <mxGeometry x="10" y="10" width="890" height="460" as="geometry" />
        </mxCell>
      </root>
    </mxGraphModel>
  </diagram>
  <diagram id="Txbi6B_1BCxX_sgVFAu3" name="data_examples">
    <mxGraphModel dx="1434" dy="884" grid="1" gridSize="10" guides="1" tooltips="1" connect="1" arrows="1" fold="1" page="1" pageScale="1" pageWidth="1169" pageHeight="827" math="0" shadow="0">
      <root>
        <mxCell id="0" />
        <mxCell id="1" parent="0" />
        <mxCell id="6qXuykF1-BETNbWCmJnV-1" value="&lt;font style=&quot;font-size: 13px&quot;&gt;0. source .csv file&lt;/font&gt;" style="text;html=1;resizable=0;points=[];autosize=1;align=center;verticalAlign=top;spacingTop=-4;fontSize=17;" parent="1" vertex="1">
          <mxGeometry x="41" y="10" width="120" height="30" as="geometry" />
        </mxCell>
        <mxCell id="6qXuykF1-BETNbWCmJnV-2" value="1. card_id,title,price_primary,price_secondary,location,labels,comment,description,exchange,scrap_date&lt;br&gt;2. 104174810,&quot;Продажа Geely Emgrand II, 2023 г. в Гомеле&quot;,55 998 р.,≈ 19 300 $,Гомель,VIN,,&quot;2023 г., механика, 1.5 л, бензин, 40 км | седан, передний привод, серый&quot;,Обмен не интересует,2023-04-06 15:08:16&lt;br&gt;3. ...." style="text;whiteSpace=wrap;html=1;" parent="1" vertex="1">
          <mxGeometry y="33" width="1160" height="70" as="geometry" />
        </mxCell>
        <mxCell id="Xq4tzsE3LeEG1R4iz5PE-1" value="&lt;span style=&quot;font-size: 13px;&quot;&gt;1. dic of rows exctracted as csv file (data extracted in accordance with the header)&lt;/span&gt;" style="text;html=1;resizable=0;points=[];autosize=1;align=center;verticalAlign=top;spacingTop=-4;fontSize=17;" vertex="1" parent="1">
          <mxGeometry x="35" y="113" width="500" height="30" as="geometry" />
        </mxCell>
        <mxCell id="Oz3QGxVbNdCpdwcPKE48-1" value="1. [&#39;card_id&#39;, &#39;title&#39;, &#39;price_primary&#39;, &#39;price_secondary&#39;, &#39;location&#39;, &#39;labels&#39;, &#39;comment&#39;, &#39;description&#39;, &#39;exchange&#39;, &#39;scrap_date&#39;]&lt;br&gt;2. [&#39;104174810&#39;, &#39;Продажа Geely Emgrand II, 2023 г. в Гомеле&#39;, &#39;55 998 р.&#39;, &#39;≈ 19 300 $&#39;, &#39;Гомель&#39;, &#39;VIN&#39;, &#39;&#39;, &#39;2023 г., механика, 1.5 л, бензин, 40 км | седан, передний привод, серый&#39;, &#39;Обмен не интересует&#39;, &#39;2023-04-06 15:08:16&#39;]&lt;br&gt;3. ...." style="text;whiteSpace=wrap;html=1;" vertex="1" parent="1">
          <mxGeometry y="136" width="1120" height="67" as="geometry" />
        </mxCell>
        <mxCell id="8X8u3BR0Lqy5XcRpbF0j-1" value="&lt;span style=&quot;font-size: 13px;&quot;&gt;2. required for filtering tokens parsed from rows&lt;/span&gt;" style="text;html=1;resizable=0;points=[];autosize=1;align=center;verticalAlign=top;spacingTop=-4;fontSize=17;" vertex="1" parent="1">
          <mxGeometry x="35" y="220" width="300" height="30" as="geometry" />
        </mxCell>
        <mxCell id="tpE-1GYcwtyUoomLxg9R-2" value="1. (title_brand, title_model, price_secondary_processed, description_year,&lt;br&gt;&amp;nbsp; &amp;nbsp; &amp;nbsp;description_transmission, description_engine, description_mileage,&amp;nbsp;description_body, &lt;br&gt;&amp;nbsp; &amp;nbsp; &amp;nbsp;full_card, &lt;br&gt;&amp;nbsp; &amp;nbsp; &amp;nbsp;description_fuel, exchange_processed)&lt;br&gt;2. Geely Emgrand II (19300, &#39;usd&#39;) 2023&lt;br&gt;&amp;nbsp; &amp;nbsp; механика 1500 (40, &#39;km&#39;)&amp;nbsp;седан &lt;br&gt;&amp;nbsp; &amp;nbsp; Продажа Geely Emgrand II, 2023 г. в Гомеле 55 998 р. ≈ 19 300 $ Гомель VIN&amp;nbsp; 2023 г., механика, 1.5 л, бензин, 40 км | седан, передний привод, серый Обмен не интересует &lt;br&gt;&amp;nbsp; &amp;nbsp; бензин no" style="text;whiteSpace=wrap;html=1;" vertex="1" parent="1">
          <mxGeometry y="244" width="1140" height="126" as="geometry" />
        </mxCell>
        <mxCell id="b3NqSiQchWgMoEmsl8if-1" value="&lt;span style=&quot;font-size: 13px;&quot;&gt;3. extracted tokens appended to the result filtered_cars dic&lt;/span&gt;" style="text;html=1;resizable=0;points=[];autosize=1;align=center;verticalAlign=top;spacingTop=-4;fontSize=17;" vertex="1" parent="1">
          <mxGeometry x="41" y="390" width="360" height="30" as="geometry" />
        </mxCell>
        <mxCell id="Zruyz8w6H2R_fK1rc9ng-1" value="[&lt;br&gt;[{&#39;card&#39;: {&#39;id&#39;: 104174810}, &lt;br&gt;&amp;nbsp; &amp;nbsp;&#39;title&#39;: {&#39;deal_type&#39;: &#39;Продажа&#39;, &lt;br&gt;&amp;nbsp; &amp;nbsp; &amp;nbsp; &amp;nbsp; &amp;nbsp; &amp;nbsp; &amp;nbsp;&#39;brand&#39;: &#39;Geely&#39;, &lt;br&gt;&amp;nbsp; &amp;nbsp; &amp;nbsp; &amp;nbsp; &amp;nbsp; &amp;nbsp; &amp;nbsp;&#39;model&#39;: &#39;Emgrand II&#39;}, &lt;br&gt;&amp;nbsp; &amp;nbsp;&#39;price&#39;: {&#39;primary&#39;: (55998, &#39;byn&#39;), &lt;br&gt;&amp;nbsp; &amp;nbsp; &amp;nbsp; &amp;nbsp; &amp;nbsp; &amp;nbsp; &amp;nbsp; &amp;nbsp;&#39;secondary&#39;: (19300, &#39;usd&#39;)}, &lt;br&gt;&amp;nbsp; &amp;nbsp;&#39;location&#39;: {&#39;country&#39;: &#39;belarus&#39;, &lt;br&gt;&amp;nbsp; &amp;nbsp; &amp;nbsp; &amp;nbsp; &amp;nbsp; &amp;nbsp; &amp;nbsp; &amp;nbsp; &amp;nbsp; &amp;nbsp; &#39;city&#39;: &#39;Гомель&#39;, &lt;br&gt;&amp;nbsp; &amp;nbsp; &amp;nbsp; &amp;nbsp; &amp;nbsp; &amp;nbsp; &amp;nbsp; &amp;nbsp; &amp;nbsp; &amp;nbsp; &#39;region&#39;: None}, &lt;br&gt;&amp;nbsp; &amp;nbsp;&#39;labels&#39;: {&#39;labels&#39;: &#39;VIN&#39;}, &lt;br&gt;&amp;nbsp; &amp;nbsp;&#39;comment&#39;: {&#39;comment&#39;: &#39;&#39;}, &lt;br&gt;&amp;nbsp; &amp;nbsp;&#39;description&#39;: {&#39;year&#39;: 2023, &lt;br&gt;&amp;nbsp; &amp;nbsp; &amp;nbsp; &amp;nbsp; &amp;nbsp; &amp;nbsp; &amp;nbsp; &amp;nbsp; &amp;nbsp; &amp;nbsp; &amp;nbsp; &amp;nbsp; &amp;nbsp;&#39;transmission&#39;: &lt;br&gt;&amp;nbsp; &amp;nbsp; &amp;nbsp; &amp;nbsp; &amp;nbsp; &amp;nbsp; &amp;nbsp; &amp;nbsp; &amp;nbsp; &amp;nbsp; &amp;nbsp; &amp;nbsp; &amp;nbsp;&#39;механика&#39;, &lt;br&gt;&amp;nbsp; &amp;nbsp; &amp;nbsp; &amp;nbsp; &amp;nbsp; &amp;nbsp; &amp;nbsp; &amp;nbsp; &amp;nbsp; &amp;nbsp; &amp;nbsp; &amp;nbsp; &amp;nbsp;&#39;engine&#39;: 1500, &lt;br&gt;&amp;nbsp; &amp;nbsp; &amp;nbsp; &amp;nbsp; &amp;nbsp; &amp;nbsp; &amp;nbsp; &amp;nbsp; &amp;nbsp; &amp;nbsp; &amp;nbsp; &amp;nbsp; &amp;nbsp;&#39;fuel&#39;: &#39;бензин&#39;, &lt;br&gt;&amp;nbsp; &amp;nbsp; &amp;nbsp; &amp;nbsp; &amp;nbsp; &amp;nbsp; &amp;nbsp; &amp;nbsp; &amp;nbsp; &amp;nbsp; &amp;nbsp; &amp;nbsp; &amp;nbsp;&#39;mileage&#39;: (40, &#39;km&#39;), &lt;br&gt;&amp;nbsp; &amp;nbsp; &amp;nbsp; &amp;nbsp; &amp;nbsp; &amp;nbsp; &amp;nbsp; &amp;nbsp; &amp;nbsp; &amp;nbsp; &amp;nbsp; &amp;nbsp; &amp;nbsp;&#39;body&#39;: &#39; седан&#39;, &lt;br&gt;&amp;nbsp; &amp;nbsp; &amp;nbsp; &amp;nbsp; &amp;nbsp; &amp;nbsp; &amp;nbsp; &amp;nbsp; &amp;nbsp; &amp;nbsp; &amp;nbsp; &amp;nbsp; &amp;nbsp;&#39;type&#39;: &#39; передний привод&#39;, &lt;br&gt;&amp;nbsp; &amp;nbsp; &amp;nbsp; &amp;nbsp; &amp;nbsp; &amp;nbsp; &amp;nbsp; &amp;nbsp; &amp;nbsp; &amp;nbsp; &amp;nbsp; &amp;nbsp; &amp;nbsp;&#39;color&#39;: &#39; серый&#39;}, &lt;br&gt;&amp;nbsp; &amp;nbsp;&#39;exchange&#39;: {&#39;exchange&#39;: &#39;Обмен не интересует&#39;}, &lt;br&gt;&amp;nbsp; &amp;nbsp;&#39;scrap_date&#39;: {&#39;scrap_date&#39;: &#39;2023-04-06 15:08:16&#39;}}]&lt;br&gt;]" style="text;whiteSpace=wrap;html=1;" vertex="1" parent="1">
          <mxGeometry x="680" y="413.5" width="310" height="356" as="geometry" />
        </mxCell>
        <mxCell id="Zruyz8w6H2R_fK1rc9ng-4" value="filtered_cars.append([{&#39;card&#39;: {&#39;id&#39;: int(card_id)},&#xa;                                   &#39;title&#39;: {&#39;deal_type&#39;: title_deal_type, &#39;brand&#39;: title_brand,&#xa;                                             &#39;model&#39;: title_model},&#xa;                                   &#39;price&#39;: {&#39;primary&#39;: price_primary_processed, &#39;secondary&#39;: price_secondary_processed},&#xa;                                   &#39;location&#39;: {&#39;country&#39;: location_country, &#39;city&#39;: location_city,&#xa;                                                &#39;region&#39;: location_region},&#xa;                                   &#39;labels&#39;: {&#39;labels&#39;: labels_upd_processed},&#xa;                                   &#39;comment&#39;: {&#39;comment&#39;: comment},&#xa;                                   &#39;description&#39;: {&#39;year&#39;: description_year, &#39;transmission&#39;: description_transmission,&#xa;                                                   &#39;engine&#39;: description_engine, &#39;fuel&#39;: description_fuel,&#xa;                                                   &#39;mileage&#39;: description_mileage, &#39;body&#39;: description_body,&#xa;                                                   &#39;type&#39;: description_drive_type, &#39;color&#39;: description_color},&#xa;                                   &#39;exchange&#39;: {&#39;exchange&#39;: exchange},&#xa;                                   &#39;scrap_date&#39;: {&#39;scrap_date&#39;: scrap_date}&#xa;                                   }])" style="text;whiteSpace=wrap;html=1;" vertex="1" parent="1">
          <mxGeometry x="20" y="440" width="560" height="270" as="geometry" />
        </mxCell>
      </root>
    </mxGraphModel>
  </diagram>
  <diagram id="eTQ9RXM9YpXyicWxUnMT" name="Страница 2">
    <mxGraphModel dx="1434" dy="884" grid="1" gridSize="10" guides="1" tooltips="1" connect="1" arrows="1" fold="1" page="1" pageScale="1" pageWidth="827" pageHeight="1169" math="0" shadow="0">
      <root>
        <mxCell id="0" />
        <mxCell id="1" parent="0" />
        <mxCell id="J8_9D3t1wL_d87raDJjL-1" style="edgeStyle=orthogonalEdgeStyle;rounded=0;orthogonalLoop=1;jettySize=auto;html=1;exitX=1;exitY=0;exitDx=0;exitDy=0;exitPerimeter=0;startArrow=none;startFill=0;startSize=6;endArrow=classic;endFill=1;fontSize=17;" parent="1" source="J8_9D3t1wL_d87raDJjL-105" target="J8_9D3t1wL_d87raDJjL-110" edge="1">
          <mxGeometry relative="1" as="geometry">
            <Array as="points">
              <mxPoint x="70" y="240" />
            </Array>
          </mxGeometry>
        </mxCell>
        <mxCell id="J8_9D3t1wL_d87raDJjL-2" style="edgeStyle=orthogonalEdgeStyle;rounded=0;orthogonalLoop=1;jettySize=auto;html=1;exitX=0;exitY=0;exitDx=45;exitDy=0;exitPerimeter=0;entryX=0.5;entryY=1;entryDx=0;entryDy=0;entryPerimeter=0;startArrow=none;startFill=0;startSize=6;endArrow=classic;endFill=1;fontSize=17;" parent="1" source="J8_9D3t1wL_d87raDJjL-110" target="J8_9D3t1wL_d87raDJjL-98" edge="1">
          <mxGeometry relative="1" as="geometry">
            <Array as="points">
              <mxPoint x="275" y="216" />
            </Array>
          </mxGeometry>
        </mxCell>
        <mxCell id="J8_9D3t1wL_d87raDJjL-3" style="edgeStyle=orthogonalEdgeStyle;rounded=0;orthogonalLoop=1;jettySize=auto;html=1;exitX=1;exitY=0.5;exitDx=0;exitDy=0;exitPerimeter=0;startArrow=none;startFill=0;startSize=6;endArrow=classic;endFill=1;fontSize=17;entryX=0.001;entryY=0.476;entryDx=0;entryDy=0;entryPerimeter=0;" parent="1" source="J8_9D3t1wL_d87raDJjL-98" target="J8_9D3t1wL_d87raDJjL-8" edge="1">
          <mxGeometry relative="1" as="geometry">
            <Array as="points">
              <mxPoint x="400" y="77" />
              <mxPoint x="400" y="141" />
            </Array>
            <mxPoint x="440" y="132" as="targetPoint" />
          </mxGeometry>
        </mxCell>
        <mxCell id="J8_9D3t1wL_d87raDJjL-4" style="edgeStyle=orthogonalEdgeStyle;rounded=0;orthogonalLoop=1;jettySize=auto;html=1;exitX=0.5;exitY=1;exitDx=0;exitDy=0;exitPerimeter=0;startArrow=none;startFill=0;startSize=6;endArrow=classic;endFill=1;fontSize=17;entryX=0.5;entryY=0;entryDx=0;entryDy=0;entryPerimeter=0;" parent="1" source="J8_9D3t1wL_d87raDJjL-6" target="J8_9D3t1wL_d87raDJjL-10" edge="1">
          <mxGeometry relative="1" as="geometry">
            <Array as="points">
              <mxPoint x="998" y="516" />
              <mxPoint x="880" y="516" />
            </Array>
          </mxGeometry>
        </mxCell>
        <mxCell id="J8_9D3t1wL_d87raDJjL-5" style="edgeStyle=orthogonalEdgeStyle;rounded=0;orthogonalLoop=1;jettySize=auto;html=1;exitX=0.585;exitY=0.997;exitDx=0;exitDy=0;exitPerimeter=0;entryX=0.432;entryY=0.017;entryDx=0;entryDy=0;entryPerimeter=0;startArrow=none;startFill=0;startSize=6;endArrow=classic;endFill=1;fontSize=17;" parent="1" source="J8_9D3t1wL_d87raDJjL-6" target="J8_9D3t1wL_d87raDJjL-86" edge="1">
          <mxGeometry relative="1" as="geometry">
            <Array as="points">
              <mxPoint x="1025" y="556" />
              <mxPoint x="1067" y="556" />
            </Array>
          </mxGeometry>
        </mxCell>
        <mxCell id="J8_9D3t1wL_d87raDJjL-6" value="" style="strokeWidth=2;html=1;shape=mxgraph.flowchart.database;whiteSpace=wrap;startSize=26;fillColor=#dae8fc;fontSize=14;strokeColor=#6c8ebf;" parent="1" vertex="1">
          <mxGeometry x="835" y="39" width="325" height="340" as="geometry" />
        </mxCell>
        <mxCell id="J8_9D3t1wL_d87raDJjL-7" style="edgeStyle=orthogonalEdgeStyle;rounded=1;orthogonalLoop=1;jettySize=auto;html=1;entryX=0.004;entryY=0.343;entryDx=0;entryDy=0;entryPerimeter=0;startArrow=none;startFill=0;startSize=6;endArrow=classic;endFill=1;fontSize=17;" parent="1" target="J8_9D3t1wL_d87raDJjL-6" edge="1">
          <mxGeometry relative="1" as="geometry">
            <mxPoint x="650" y="156" as="sourcePoint" />
          </mxGeometry>
        </mxCell>
        <mxCell id="J8_9D3t1wL_d87raDJjL-8" value="" style="strokeWidth=2;html=1;shape=mxgraph.flowchart.database;whiteSpace=wrap;startSize=26;fillColor=#d5e8d4;fontSize=14;strokeColor=#82b366;" parent="1" vertex="1">
          <mxGeometry x="440" y="46" width="210" height="200" as="geometry" />
        </mxCell>
        <mxCell id="J8_9D3t1wL_d87raDJjL-9" value="" style="strokeWidth=2;html=1;shape=mxgraph.flowchart.database;whiteSpace=wrap;startSize=26;fillColor=#e1d5e7;fontSize=14;strokeColor=#9673a6;" parent="1" vertex="1">
          <mxGeometry x="475" y="296" width="160" height="147" as="geometry" />
        </mxCell>
        <mxCell id="J8_9D3t1wL_d87raDJjL-10" value="" style="strokeWidth=2;html=1;shape=mxgraph.flowchart.database;whiteSpace=wrap;startSize=26;fillColor=#f8cecc;fontSize=14;strokeColor=#b85450;" parent="1" vertex="1">
          <mxGeometry x="785" y="553" width="190" height="154" as="geometry" />
        </mxCell>
        <mxCell id="J8_9D3t1wL_d87raDJjL-11" value="&lt;font style=&quot;font-size: 20px&quot;&gt;DM&lt;/font&gt;" style="text;html=1;resizable=0;points=[];autosize=1;align=left;verticalAlign=top;spacingTop=-8;fontSize=14;spacingLeft=7;" parent="1" vertex="1">
          <mxGeometry x="855" y="569" width="50" height="20" as="geometry" />
        </mxCell>
        <mxCell id="J8_9D3t1wL_d87raDJjL-12" value="&lt;font style=&quot;font-size: 20px&quot;&gt;DW&lt;/font&gt;" style="text;html=1;resizable=0;points=[];autosize=1;align=left;verticalAlign=top;spacingTop=-8;fontSize=14;spacingLeft=7;" parent="1" vertex="1">
          <mxGeometry x="970.5" y="79" width="60" height="20" as="geometry" />
        </mxCell>
        <mxCell id="J8_9D3t1wL_d87raDJjL-13" value="&lt;font style=&quot;font-size: 17px;&quot;&gt;DB Staging&lt;/font&gt;" style="text;html=1;resizable=0;points=[];autosize=1;align=left;verticalAlign=top;spacingTop=-8;fontSize=17;spacingLeft=7;" parent="1" vertex="1">
          <mxGeometry x="490" y="67" width="120" height="20" as="geometry" />
        </mxCell>
        <mxCell id="J8_9D3t1wL_d87raDJjL-14" value="&lt;font style=&quot;font-size: 17px&quot;&gt;DB Auditing&lt;/font&gt;" style="text;html=1;resizable=0;points=[];autosize=1;align=left;verticalAlign=top;spacingTop=-8;fontSize=17;spacingLeft=7;" parent="1" vertex="1">
          <mxGeometry x="500" y="309.5" width="110" height="20" as="geometry" />
        </mxCell>
        <mxCell id="J8_9D3t1wL_d87raDJjL-15" style="edgeStyle=orthogonalEdgeStyle;rounded=0;orthogonalLoop=1;jettySize=auto;html=1;exitX=0.398;exitY=1;exitDx=0;exitDy=0;entryX=0.994;entryY=0.395;entryDx=0;entryDy=0;entryPerimeter=0;startArrow=none;startFill=0;startSize=6;endArrow=classic;endFill=1;fontSize=17;fillColor=#dae8fc;strokeColor=#6c8ebf;dashed=1;exitPerimeter=0;" parent="1" source="J8_9D3t1wL_d87raDJjL-17" target="J8_9D3t1wL_d87raDJjL-9" edge="1">
          <mxGeometry relative="1" as="geometry">
            <Array as="points">
              <mxPoint x="730" y="354" />
            </Array>
          </mxGeometry>
        </mxCell>
        <mxCell id="J8_9D3t1wL_d87raDJjL-16" style="edgeStyle=orthogonalEdgeStyle;rounded=0;orthogonalLoop=1;jettySize=auto;html=1;exitX=0.5;exitY=1;exitDx=0;exitDy=0;startArrow=none;startFill=0;startSize=6;endArrow=classic;endFill=1;fontSize=17;fillColor=#f8cecc;strokeColor=#b85450;dashed=1;entryX=0.963;entryY=0.008;entryDx=0;entryDy=0;entryPerimeter=0;" parent="1" source="J8_9D3t1wL_d87raDJjL-17" target="J8_9D3t1wL_d87raDJjL-21" edge="1">
          <mxGeometry relative="1" as="geometry">
            <Array as="points">
              <mxPoint x="743" y="365" />
            </Array>
          </mxGeometry>
        </mxCell>
        <mxCell id="J8_9D3t1wL_d87raDJjL-17" value="" style="rounded=1;whiteSpace=wrap;html=1;absoluteArcSize=1;arcSize=14;strokeWidth=2;startSize=26;fillColor=#fff2cc;fontSize=17;" parent="1" vertex="1">
          <mxGeometry x="683" y="140" width="120" height="30" as="geometry" />
        </mxCell>
        <mxCell id="J8_9D3t1wL_d87raDJjL-18" style="edgeStyle=orthogonalEdgeStyle;rounded=0;orthogonalLoop=1;jettySize=auto;html=1;exitX=0.5;exitY=1;exitDx=0;exitDy=0;exitPerimeter=0;entryX=1;entryY=0.5;entryDx=0;entryDy=0;entryPerimeter=0;startArrow=none;startFill=0;startSize=6;endArrow=none;endFill=0;fontSize=17;" parent="1" source="J8_9D3t1wL_d87raDJjL-19" target="J8_9D3t1wL_d87raDJjL-20" edge="1">
          <mxGeometry relative="1" as="geometry">
            <Array as="points">
              <mxPoint x="595" y="406" />
            </Array>
          </mxGeometry>
        </mxCell>
        <mxCell id="J8_9D3t1wL_d87raDJjL-19" value="&lt;span style=&quot;font-family: &amp;#34;helvetica&amp;#34; , &amp;#34;arial&amp;#34; , sans-serif ; font-size: 0px&quot;&gt;%3CmxGraphModel%3E%3Croot%3E%3CmxCell%20id%3D%220%22%2F%3E%3CmxCell%20id%3D%221%22%20parent%3D%220%22%2F%3E%3CmxCell%20id%3D%222%22%20value%3D%22%22%20style%3D%22verticalLabelPosition%3Dbottom%3BverticalAlign%3Dtop%3Bhtml%3D1%3Bshape%3Dmxgraph.basic.rect%3BfillColor%3D%23ffffff%3BfillColor2%3Dnone%3BstrokeColor%3D%23000000%3BstrokeWidth%3D1%3Bsize%3D20%3Bindent%3D5%3BstartSize%3D26%3BfontSize%3D17%3B%22%20vertex%3D%221%22%20parent%3D%221%22%3E%3CmxGeometry%20x%3D%22490%22%20y%3D%22363%22%20width%3D%2255%22%20height%3D%2230%22%20as%3D%22geometry%22%2F%3E%3C%2FmxCell%3E%3C%2Froot%3E%3C%2FmxGraphModel%3E&lt;/span&gt;" style="verticalLabelPosition=bottom;verticalAlign=top;html=1;strokeWidth=2;shape=card;whiteSpace=wrap;size=0;arcSize=12;startSize=26;fontSize=17;" parent="1" vertex="1">
          <mxGeometry x="560" y="366" width="70" height="30" as="geometry" />
        </mxCell>
        <mxCell id="J8_9D3t1wL_d87raDJjL-20" value="&lt;span style=&quot;font-family: &amp;#34;helvetica&amp;#34; , &amp;#34;arial&amp;#34; , sans-serif ; font-size: 0px&quot;&gt;%3CmxGraphModel%3E%3Croot%3E%3CmxCell%20id%3D%220%22%2F%3E%3CmxCell%20id%3D%221%22%20parent%3D%220%22%2F%3E%3CmxCell%20id%3D%222%22%20value%3D%22%22%20style%3D%22verticalLabelPosition%3Dbottom%3BverticalAlign%3Dtop%3Bhtml%3D1%3Bshape%3Dmxgraph.basic.rect%3BfillColor%3D%23ffffff%3BfillColor2%3Dnone%3BstrokeColor%3D%23000000%3BstrokeWidth%3D1%3Bsize%3D20%3Bindent%3D5%3BstartSize%3D26%3BfontSize%3D17%3B%22%20vertex%3D%221%22%20parent%3D%221%22%3E%3CmxGeometry%20x%3D%22490%22%20y%3D%22363%22%20width%3D%2255%22%20height%3D%2230%22%20as%3D%22geometry%22%2F%3E%3C%2FmxCell%3E%3C%2Froot%3E%3C%2FmxGraphModel%3E&lt;/span&gt;" style="verticalLabelPosition=bottom;verticalAlign=top;html=1;strokeWidth=2;shape=card;whiteSpace=wrap;size=0;arcSize=12;startSize=26;fontSize=17;" parent="1" vertex="1">
          <mxGeometry x="480" y="396" width="70" height="30" as="geometry" />
        </mxCell>
        <mxCell id="J8_9D3t1wL_d87raDJjL-21" value="&lt;font style=&quot;font-size: 7px&quot;&gt;process_load_status&lt;/font&gt;" style="text;html=1;resizable=0;points=[];autosize=1;align=left;verticalAlign=top;spacingTop=-4;fontSize=17;" parent="1" vertex="1">
          <mxGeometry x="561" y="365" width="80" height="20" as="geometry" />
        </mxCell>
        <mxCell id="J8_9D3t1wL_d87raDJjL-22" value="&lt;font style=&quot;font-size: 9px&quot;&gt;bad_data&lt;/font&gt;" style="text;html=1;resizable=0;points=[];autosize=1;align=left;verticalAlign=top;spacingTop=-4;fontSize=17;" parent="1" vertex="1">
          <mxGeometry x="493" y="397" width="50" height="20" as="geometry" />
        </mxCell>
        <mxCell id="J8_9D3t1wL_d87raDJjL-23" value="&lt;font style=&quot;font-size: 13px&quot;&gt;DW ETL (SSIS, i)&lt;/font&gt;" style="text;html=1;resizable=0;points=[];autosize=1;align=left;verticalAlign=top;spacingTop=-4;fontSize=17;" parent="1" vertex="1">
          <mxGeometry x="692" y="142" width="120" height="20" as="geometry" />
        </mxCell>
        <mxCell id="J8_9D3t1wL_d87raDJjL-24" value="&lt;span style=&quot;font-family: &amp;#34;helvetica&amp;#34; , &amp;#34;arial&amp;#34; , sans-serif ; font-size: 0px&quot;&gt;%3CmxGraphModel%3E%3Croot%3E%3CmxCell%20id%3D%220%22%2F%3E%3CmxCell%20id%3D%221%22%20parent%3D%220%22%2F%3E%3CmxCell%20id%3D%222%22%20value%3D%22%22%20style%3D%22verticalLabelPosition%3Dbottom%3BverticalAlign%3Dtop%3Bhtml%3D1%3Bshape%3Dmxgraph.basic.rect%3BfillColor%3D%23ffffff%3BfillColor2%3Dnone%3BstrokeColor%3D%23000000%3BstrokeWidth%3D1%3Bsize%3D20%3Bindent%3D5%3BstartSize%3D26%3BfontSize%3D17%3B%22%20vertex%3D%221%22%20parent%3D%221%22%3E%3CmxGeometry%20x%3D%22490%22%20y%3D%22363%22%20width%3D%2255%22%20height%3D%2230%22%20as%3D%22geometry%22%2F%3E%3C%2FmxCell%3E%3C%2Froot%3E%3C%2FmxGraphModel%3E&lt;/span&gt;" style="verticalLabelPosition=bottom;verticalAlign=top;html=1;strokeWidth=2;shape=card;whiteSpace=wrap;size=0;arcSize=12;startSize=26;fontSize=17;" parent="1" vertex="1">
          <mxGeometry x="597" y="116" width="50" height="30" as="geometry" />
        </mxCell>
        <mxCell id="J8_9D3t1wL_d87raDJjL-25" value="&lt;font style=&quot;font-size: 8px&quot;&gt;stg_result&lt;/font&gt;" style="text;html=1;resizable=0;points=[];autosize=1;align=left;verticalAlign=top;spacingTop=-4;fontSize=17;" parent="1" vertex="1">
          <mxGeometry x="601" y="116" width="50" height="20" as="geometry" />
        </mxCell>
        <mxCell id="J8_9D3t1wL_d87raDJjL-26" style="edgeStyle=orthogonalEdgeStyle;rounded=0;orthogonalLoop=1;jettySize=auto;html=1;exitX=0;exitY=0;exitDx=0;exitDy=15;exitPerimeter=0;entryX=0.733;entryY=0;entryDx=0;entryDy=0;entryPerimeter=0;startArrow=none;startFill=0;startSize=6;endArrow=none;endFill=0;fontSize=17;" parent="1" source="J8_9D3t1wL_d87raDJjL-27" target="J8_9D3t1wL_d87raDJjL-33" edge="1">
          <mxGeometry relative="1" as="geometry" />
        </mxCell>
        <mxCell id="J8_9D3t1wL_d87raDJjL-27" value="&lt;span style=&quot;font-family: &amp;#34;helvetica&amp;#34; , &amp;#34;arial&amp;#34; , sans-serif ; font-size: 0px&quot;&gt;%3CmxGraphModel%3E%3Croot%3E%3CmxCell%20id%3D%220%22%2F%3E%3CmxCell%20id%3D%221%22%20parent%3D%220%22%2F%3E%3CmxCell%20id%3D%222%22%20value%3D%22%22%20style%3D%22verticalLabelPosition%3Dbottom%3BverticalAlign%3Dtop%3Bhtml%3D1%3Bshape%3Dmxgraph.basic.rect%3BfillColor%3D%23ffffff%3BfillColor2%3Dnone%3BstrokeColor%3D%23000000%3BstrokeWidth%3D1%3Bsize%3D20%3Bindent%3D5%3BstartSize%3D26%3BfontSize%3D17%3B%22%20vertex%3D%221%22%20parent%3D%221%22%3E%3CmxGeometry%20x%3D%22490%22%20y%3D%22363%22%20width%3D%2255%22%20height%3D%2230%22%20as%3D%22geometry%22%2F%3E%3C%2FmxCell%3E%3C%2Froot%3E%3C%2FmxGraphModel%3E&lt;/span&gt;" style="verticalLabelPosition=bottom;verticalAlign=top;html=1;strokeWidth=2;shape=card;whiteSpace=wrap;size=0;arcSize=12;startSize=26;fontSize=17;" parent="1" vertex="1">
          <mxGeometry x="536" y="126" width="50" height="30" as="geometry" />
        </mxCell>
        <mxCell id="J8_9D3t1wL_d87raDJjL-28" style="edgeStyle=orthogonalEdgeStyle;rounded=0;orthogonalLoop=1;jettySize=auto;html=1;exitX=0;exitY=0;exitDx=0;exitDy=15;exitPerimeter=0;entryX=1;entryY=0.5;entryDx=0;entryDy=0;entryPerimeter=0;startArrow=none;startFill=0;startSize=6;endArrow=none;endFill=0;fontSize=17;" parent="1" source="J8_9D3t1wL_d87raDJjL-29" target="J8_9D3t1wL_d87raDJjL-33" edge="1">
          <mxGeometry relative="1" as="geometry" />
        </mxCell>
        <mxCell id="J8_9D3t1wL_d87raDJjL-29" value="&lt;span style=&quot;font-family: &amp;#34;helvetica&amp;#34; , &amp;#34;arial&amp;#34; , sans-serif ; font-size: 0px&quot;&gt;%3CmxGraphModel%3E%3Croot%3E%3CmxCell%20id%3D%220%22%2F%3E%3CmxCell%20id%3D%221%22%20parent%3D%220%22%2F%3E%3CmxCell%20id%3D%222%22%20value%3D%22%22%20style%3D%22verticalLabelPosition%3Dbottom%3BverticalAlign%3Dtop%3Bhtml%3D1%3Bshape%3Dmxgraph.basic.rect%3BfillColor%3D%23ffffff%3BfillColor2%3Dnone%3BstrokeColor%3D%23000000%3BstrokeWidth%3D1%3Bsize%3D20%3Bindent%3D5%3BstartSize%3D26%3BfontSize%3D17%3B%22%20vertex%3D%221%22%20parent%3D%221%22%3E%3CmxGeometry%20x%3D%22490%22%20y%3D%22363%22%20width%3D%2255%22%20height%3D%2230%22%20as%3D%22geometry%22%2F%3E%3C%2FmxCell%3E%3C%2Froot%3E%3C%2FmxGraphModel%3E&lt;/span&gt;" style="verticalLabelPosition=bottom;verticalAlign=top;html=1;strokeWidth=2;shape=card;whiteSpace=wrap;size=0;arcSize=12;startSize=26;fontSize=17;" parent="1" vertex="1">
          <mxGeometry x="595" y="154" width="50" height="30" as="geometry" />
        </mxCell>
        <mxCell id="J8_9D3t1wL_d87raDJjL-30" style="edgeStyle=orthogonalEdgeStyle;rounded=0;orthogonalLoop=1;jettySize=auto;html=1;exitX=0;exitY=0;exitDx=0;exitDy=0;exitPerimeter=0;entryX=1;entryY=1;entryDx=0;entryDy=0;entryPerimeter=0;startArrow=none;startFill=0;startSize=6;endArrow=none;endFill=0;fontSize=17;" parent="1" source="J8_9D3t1wL_d87raDJjL-31" target="J8_9D3t1wL_d87raDJjL-33" edge="1">
          <mxGeometry relative="1" as="geometry" />
        </mxCell>
        <mxCell id="J8_9D3t1wL_d87raDJjL-31" value="&lt;span style=&quot;font-family: &amp;#34;helvetica&amp;#34; , &amp;#34;arial&amp;#34; , sans-serif ; font-size: 0px&quot;&gt;%3CmxGraphModel%3E%3Croot%3E%3CmxCell%20id%3D%220%22%2F%3E%3CmxCell%20id%3D%221%22%20parent%3D%220%22%2F%3E%3CmxCell%20id%3D%222%22%20value%3D%22%22%20style%3D%22verticalLabelPosition%3Dbottom%3BverticalAlign%3Dtop%3Bhtml%3D1%3Bshape%3Dmxgraph.basic.rect%3BfillColor%3D%23ffffff%3BfillColor2%3Dnone%3BstrokeColor%3D%23000000%3BstrokeWidth%3D1%3Bsize%3D20%3Bindent%3D5%3BstartSize%3D26%3BfontSize%3D17%3B%22%20vertex%3D%221%22%20parent%3D%221%22%3E%3CmxGeometry%20x%3D%22490%22%20y%3D%22363%22%20width%3D%2255%22%20height%3D%2230%22%20as%3D%22geometry%22%2F%3E%3C%2FmxCell%3E%3C%2Froot%3E%3C%2FmxGraphModel%3E&lt;/span&gt;" style="verticalLabelPosition=bottom;verticalAlign=top;html=1;strokeWidth=2;shape=card;whiteSpace=wrap;size=0;arcSize=12;startSize=26;fontSize=17;" parent="1" vertex="1">
          <mxGeometry x="551" y="194" width="50" height="30" as="geometry" />
        </mxCell>
        <mxCell id="J8_9D3t1wL_d87raDJjL-32" style="edgeStyle=orthogonalEdgeStyle;rounded=0;orthogonalLoop=1;jettySize=auto;html=1;exitX=0;exitY=0;exitDx=25;exitDy=0;exitPerimeter=0;entryX=0;entryY=0;entryDx=0;entryDy=0;entryPerimeter=0;startArrow=none;startFill=0;startSize=6;endArrow=none;endFill=0;fontSize=17;" parent="1" source="J8_9D3t1wL_d87raDJjL-33" target="J8_9D3t1wL_d87raDJjL-24" edge="1">
          <mxGeometry relative="1" as="geometry">
            <Array as="points">
              <mxPoint x="505" y="116" />
            </Array>
          </mxGeometry>
        </mxCell>
        <mxCell id="J8_9D3t1wL_d87raDJjL-33" value="&lt;span style=&quot;font-family: &amp;#34;helvetica&amp;#34; , &amp;#34;arial&amp;#34; , sans-serif ; font-size: 0px&quot;&gt;%3CmxGraphModel%3E%3Croot%3E%3CmxCell%20id%3D%220%22%2F%3E%3CmxCell%20id%3D%221%22%20parent%3D%220%22%2F%3E%3CmxCell%20id%3D%222%22%20value%3D%22%22%20style%3D%22verticalLabelPosition%3Dbottom%3BverticalAlign%3Dtop%3Bhtml%3D1%3Bshape%3Dmxgraph.basic.rect%3BfillColor%3D%23ffffff%3BfillColor2%3Dnone%3BstrokeColor%3D%23000000%3BstrokeWidth%3D1%3Bsize%3D20%3Bindent%3D5%3BstartSize%3D26%3BfontSize%3D17%3B%22%20vertex%3D%221%22%20parent%3D%221%22%3E%3CmxGeometry%20x%3D%22490%22%20y%3D%22363%22%20width%3D%2255%22%20height%3D%2230%22%20as%3D%22geometry%22%2F%3E%3C%2FmxCell%3E%3C%2Froot%3E%3C%2FmxGraphModel%3E&lt;/span&gt;" style="verticalLabelPosition=bottom;verticalAlign=top;html=1;strokeWidth=2;shape=card;whiteSpace=wrap;size=0;arcSize=12;startSize=26;fontSize=17;" parent="1" vertex="1">
          <mxGeometry x="480" y="154" width="50" height="30" as="geometry" />
        </mxCell>
        <mxCell id="J8_9D3t1wL_d87raDJjL-34" style="edgeStyle=orthogonalEdgeStyle;rounded=0;orthogonalLoop=1;jettySize=auto;html=1;exitX=0.5;exitY=1;exitDx=0;exitDy=0;exitPerimeter=0;entryX=0;entryY=0;entryDx=0;entryDy=15;entryPerimeter=0;startArrow=none;startFill=0;startSize=6;endArrow=none;endFill=0;fontSize=17;" parent="1" source="J8_9D3t1wL_d87raDJjL-35" target="J8_9D3t1wL_d87raDJjL-33" edge="1">
          <mxGeometry relative="1" as="geometry" />
        </mxCell>
        <mxCell id="J8_9D3t1wL_d87raDJjL-35" value="&lt;span style=&quot;font-family: &amp;#34;helvetica&amp;#34; , &amp;#34;arial&amp;#34; , sans-serif ; font-size: 0px&quot;&gt;%3CmxGraphModel%3E%3Croot%3E%3CmxCell%20id%3D%220%22%2F%3E%3CmxCell%20id%3D%221%22%20parent%3D%220%22%2F%3E%3CmxCell%20id%3D%222%22%20value%3D%22%22%20style%3D%22verticalLabelPosition%3Dbottom%3BverticalAlign%3Dtop%3Bhtml%3D1%3Bshape%3Dmxgraph.basic.rect%3BfillColor%3D%23ffffff%3BfillColor2%3Dnone%3BstrokeColor%3D%23000000%3BstrokeWidth%3D1%3Bsize%3D20%3Bindent%3D5%3BstartSize%3D26%3BfontSize%3D17%3B%22%20vertex%3D%221%22%20parent%3D%221%22%3E%3CmxGeometry%20x%3D%22490%22%20y%3D%22363%22%20width%3D%2255%22%20height%3D%2230%22%20as%3D%22geometry%22%2F%3E%3C%2FmxCell%3E%3C%2Froot%3E%3C%2FmxGraphModel%3E&lt;/span&gt;" style="verticalLabelPosition=bottom;verticalAlign=top;html=1;strokeWidth=2;shape=card;whiteSpace=wrap;size=0;arcSize=12;startSize=26;fontSize=17;" parent="1" vertex="1">
          <mxGeometry x="445" y="116" width="50" height="30" as="geometry" />
        </mxCell>
        <mxCell id="J8_9D3t1wL_d87raDJjL-36" value="&lt;span style=&quot;font-family: &amp;#34;helvetica&amp;#34; , &amp;#34;arial&amp;#34; , sans-serif ; font-size: 0px&quot;&gt;%3CmxGraphModel%3E%3Croot%3E%3CmxCell%20id%3D%220%22%2F%3E%3CmxCell%20id%3D%221%22%20parent%3D%220%22%2F%3E%3CmxCell%20id%3D%222%22%20value%3D%22%22%20style%3D%22verticalLabelPosition%3Dbottom%3BverticalAlign%3Dtop%3Bhtml%3D1%3Bshape%3Dmxgraph.basic.rect%3BfillColor%3D%23ffffff%3BfillColor2%3Dnone%3BstrokeColor%3D%23000000%3BstrokeWidth%3D1%3Bsize%3D20%3Bindent%3D5%3BstartSize%3D26%3BfontSize%3D17%3B%22%20vertex%3D%221%22%20parent%3D%221%22%3E%3CmxGeometry%20x%3D%22490%22%20y%3D%22363%22%20width%3D%2255%22%20height%3D%2230%22%20as%3D%22geometry%22%2F%3E%3C%2FmxCell%3E%3C%2Froot%3E%3C%2FmxGraphModel%3E&lt;/span&gt;" style="verticalLabelPosition=bottom;verticalAlign=top;html=1;strokeWidth=2;shape=card;whiteSpace=wrap;size=0;arcSize=12;startSize=26;fontSize=17;" parent="1" vertex="1">
          <mxGeometry x="460" y="196" width="50" height="30" as="geometry" />
        </mxCell>
        <mxCell id="J8_9D3t1wL_d87raDJjL-37" value="&lt;font style=&quot;font-size: 8px&quot;&gt;stg_pool&lt;/font&gt;" style="text;html=1;resizable=0;points=[];autosize=1;align=left;verticalAlign=top;spacingTop=-4;fontSize=17;" parent="1" vertex="1">
          <mxGeometry x="545" y="125" width="50" height="20" as="geometry" />
        </mxCell>
        <mxCell id="J8_9D3t1wL_d87raDJjL-38" value="&lt;font style=&quot;font-size: 8px&quot;&gt;&lt;font style=&quot;font-size: 8px&quot;&gt;stg_discipline&lt;/font&gt;&lt;/font&gt;" style="text;html=1;resizable=0;points=[];autosize=1;align=left;verticalAlign=top;spacingTop=-4;fontSize=17;" parent="1" vertex="1">
          <mxGeometry x="594" y="154" width="60" height="20" as="geometry" />
        </mxCell>
        <mxCell id="J8_9D3t1wL_d87raDJjL-39" value="&lt;font style=&quot;font-size: 8px&quot;&gt;stg_group&lt;/font&gt;" style="text;html=1;resizable=0;points=[];autosize=1;align=left;verticalAlign=top;spacingTop=-4;fontSize=17;" parent="1" vertex="1">
          <mxGeometry x="557" y="194" width="50" height="20" as="geometry" />
        </mxCell>
        <mxCell id="J8_9D3t1wL_d87raDJjL-40" value="&lt;font style=&quot;font-size: 8px&quot;&gt;stg_norm&lt;/font&gt;" style="text;html=1;resizable=0;points=[];autosize=1;align=left;verticalAlign=top;spacingTop=-4;fontSize=17;" parent="1" vertex="1">
          <mxGeometry x="467" y="196" width="50" height="20" as="geometry" />
        </mxCell>
        <mxCell id="J8_9D3t1wL_d87raDJjL-41" value="&lt;font style=&quot;font-size: 7px&quot;&gt;&lt;font style=&quot;font-size: 7px&quot;&gt;stg_competition&lt;/font&gt;&lt;/font&gt;" style="text;html=1;resizable=0;points=[];autosize=1;align=left;verticalAlign=top;spacingTop=-4;fontSize=17;" parent="1" vertex="1">
          <mxGeometry x="479" y="154" width="60" height="20" as="geometry" />
        </mxCell>
        <mxCell id="J8_9D3t1wL_d87raDJjL-42" value="&lt;font style=&quot;font-size: 8px&quot;&gt;stg_event&lt;/font&gt;" style="text;html=1;resizable=0;points=[];autosize=1;align=left;verticalAlign=top;spacingTop=-4;fontSize=17;" parent="1" vertex="1">
          <mxGeometry x="449" y="116" width="50" height="20" as="geometry" />
        </mxCell>
        <mxCell id="J8_9D3t1wL_d87raDJjL-43" style="edgeStyle=orthogonalEdgeStyle;rounded=0;orthogonalLoop=1;jettySize=auto;html=1;exitX=0.5;exitY=1;exitDx=0;exitDy=0;exitPerimeter=0;startArrow=none;startFill=0;startSize=6;endArrow=none;endFill=0;fontSize=17;" parent="1" source="J8_9D3t1wL_d87raDJjL-45" target="J8_9D3t1wL_d87raDJjL-82" edge="1">
          <mxGeometry relative="1" as="geometry">
            <Array as="points">
              <mxPoint x="1125" y="206" />
              <mxPoint x="1042" y="206" />
            </Array>
          </mxGeometry>
        </mxCell>
        <mxCell id="J8_9D3t1wL_d87raDJjL-44" style="edgeStyle=orthogonalEdgeStyle;rounded=0;orthogonalLoop=1;jettySize=auto;html=1;exitX=0;exitY=1;exitDx=0;exitDy=0;exitPerimeter=0;startArrow=none;startFill=0;startSize=6;endArrow=none;endFill=0;fontSize=17;" parent="1" source="J8_9D3t1wL_d87raDJjL-45" target="J8_9D3t1wL_d87raDJjL-81" edge="1">
          <mxGeometry relative="1" as="geometry" />
        </mxCell>
        <mxCell id="J8_9D3t1wL_d87raDJjL-45" value="&lt;span style=&quot;font-family: &amp;#34;helvetica&amp;#34; , &amp;#34;arial&amp;#34; , sans-serif ; font-size: 0px&quot;&gt;%3CmxGraphModel%3E%3Croot%3E%3CmxCell%20id%3D%220%22%2F%3E%3CmxCell%20id%3D%221%22%20parent%3D%220%22%2F%3E%3CmxCell%20id%3D%222%22%20value%3D%22%22%20style%3D%22verticalLabelPosition%3Dbottom%3BverticalAlign%3Dtop%3Bhtml%3D1%3Bshape%3Dmxgraph.basic.rect%3BfillColor%3D%23ffffff%3BfillColor2%3Dnone%3BstrokeColor%3D%23000000%3BstrokeWidth%3D1%3Bsize%3D20%3Bindent%3D5%3BstartSize%3D26%3BfontSize%3D17%3B%22%20vertex%3D%221%22%20parent%3D%221%22%3E%3CmxGeometry%20x%3D%22490%22%20y%3D%22363%22%20width%3D%2255%22%20height%3D%2230%22%20as%3D%22geometry%22%2F%3E%3C%2FmxCell%3E%3C%2Froot%3E%3C%2FmxGraphModel%3E&lt;/span&gt;" style="verticalLabelPosition=bottom;verticalAlign=top;html=1;strokeWidth=2;shape=card;whiteSpace=wrap;size=0;arcSize=12;startSize=26;fontSize=17;" parent="1" vertex="1">
          <mxGeometry x="1100" y="147" width="50" height="30" as="geometry" />
        </mxCell>
        <mxCell id="J8_9D3t1wL_d87raDJjL-46" style="edgeStyle=orthogonalEdgeStyle;rounded=0;orthogonalLoop=1;jettySize=auto;html=1;exitX=0.5;exitY=1;exitDx=0;exitDy=0;exitPerimeter=0;entryX=0.592;entryY=-0.017;entryDx=0;entryDy=0;entryPerimeter=0;startArrow=none;startFill=0;startSize=6;endArrow=none;endFill=0;fontSize=17;" parent="1" source="J8_9D3t1wL_d87raDJjL-48" target="J8_9D3t1wL_d87raDJjL-82" edge="1">
          <mxGeometry relative="1" as="geometry" />
        </mxCell>
        <mxCell id="J8_9D3t1wL_d87raDJjL-47" style="edgeStyle=orthogonalEdgeStyle;rounded=0;orthogonalLoop=1;jettySize=auto;html=1;exitX=0;exitY=1;exitDx=0;exitDy=0;exitPerimeter=0;entryX=0.607;entryY=-0.025;entryDx=0;entryDy=0;entryPerimeter=0;startArrow=none;startFill=0;startSize=6;endArrow=none;endFill=0;fontSize=17;" parent="1" source="J8_9D3t1wL_d87raDJjL-48" target="J8_9D3t1wL_d87raDJjL-81" edge="1">
          <mxGeometry relative="1" as="geometry">
            <Array as="points">
              <mxPoint x="1000" y="186" />
              <mxPoint x="1000" y="237" />
              <mxPoint x="980" y="237" />
            </Array>
          </mxGeometry>
        </mxCell>
        <mxCell id="J8_9D3t1wL_d87raDJjL-48" value="&lt;span style=&quot;font-family: &amp;#34;helvetica&amp;#34; , &amp;#34;arial&amp;#34; , sans-serif ; font-size: 0px&quot;&gt;%3CmxGraphModel%3E%3Croot%3E%3CmxCell%20id%3D%220%22%2F%3E%3CmxCell%20id%3D%221%22%20parent%3D%220%22%2F%3E%3CmxCell%20id%3D%222%22%20value%3D%22%22%20style%3D%22verticalLabelPosition%3Dbottom%3BverticalAlign%3Dtop%3Bhtml%3D1%3Bshape%3Dmxgraph.basic.rect%3BfillColor%3D%23ffffff%3BfillColor2%3Dnone%3BstrokeColor%3D%23000000%3BstrokeWidth%3D1%3Bsize%3D20%3Bindent%3D5%3BstartSize%3D26%3BfontSize%3D17%3B%22%20vertex%3D%221%22%20parent%3D%221%22%3E%3CmxGeometry%20x%3D%22490%22%20y%3D%22363%22%20width%3D%2255%22%20height%3D%2230%22%20as%3D%22geometry%22%2F%3E%3C%2FmxCell%3E%3C%2Froot%3E%3C%2FmxGraphModel%3E&lt;/span&gt;" style="verticalLabelPosition=bottom;verticalAlign=top;html=1;strokeWidth=2;shape=card;whiteSpace=wrap;size=0;arcSize=12;startSize=26;fontSize=17;" parent="1" vertex="1">
          <mxGeometry x="1020" y="156" width="60" height="30" as="geometry" />
        </mxCell>
        <mxCell id="J8_9D3t1wL_d87raDJjL-49" style="edgeStyle=orthogonalEdgeStyle;rounded=0;orthogonalLoop=1;jettySize=auto;html=1;exitX=0.5;exitY=1;exitDx=0;exitDy=0;exitPerimeter=0;entryX=0.25;entryY=-0.025;entryDx=0;entryDy=0;entryPerimeter=0;startArrow=none;startFill=0;startSize=6;endArrow=none;endFill=0;fontSize=17;" parent="1" source="J8_9D3t1wL_d87raDJjL-51" target="J8_9D3t1wL_d87raDJjL-81" edge="1">
          <mxGeometry relative="1" as="geometry" />
        </mxCell>
        <mxCell id="J8_9D3t1wL_d87raDJjL-50" style="edgeStyle=orthogonalEdgeStyle;rounded=0;orthogonalLoop=1;jettySize=auto;html=1;exitX=1;exitY=1;exitDx=0;exitDy=0;exitPerimeter=0;entryX=0.008;entryY=0.067;entryDx=0;entryDy=0;entryPerimeter=0;startArrow=none;startFill=0;startSize=6;endArrow=none;endFill=0;fontSize=17;" parent="1" source="J8_9D3t1wL_d87raDJjL-51" target="J8_9D3t1wL_d87raDJjL-82" edge="1">
          <mxGeometry relative="1" as="geometry">
            <Array as="points">
              <mxPoint x="980" y="196" />
              <mxPoint x="1022" y="196" />
            </Array>
          </mxGeometry>
        </mxCell>
        <mxCell id="J8_9D3t1wL_d87raDJjL-51" value="&lt;span style=&quot;font-family: &amp;#34;helvetica&amp;#34; , &amp;#34;arial&amp;#34; , sans-serif ; font-size: 0px&quot;&gt;%3CmxGraphModel%3E%3Croot%3E%3CmxCell%20id%3D%220%22%2F%3E%3CmxCell%20id%3D%221%22%20parent%3D%220%22%2F%3E%3CmxCell%20id%3D%222%22%20value%3D%22%22%20style%3D%22verticalLabelPosition%3Dbottom%3BverticalAlign%3Dtop%3Bhtml%3D1%3Bshape%3Dmxgraph.basic.rect%3BfillColor%3D%23ffffff%3BfillColor2%3Dnone%3BstrokeColor%3D%23000000%3BstrokeWidth%3D1%3Bsize%3D20%3Bindent%3D5%3BstartSize%3D26%3BfontSize%3D17%3B%22%20vertex%3D%221%22%20parent%3D%221%22%3E%3CmxGeometry%20x%3D%22490%22%20y%3D%22363%22%20width%3D%2255%22%20height%3D%2230%22%20as%3D%22geometry%22%2F%3E%3C%2FmxCell%3E%3C%2Froot%3E%3C%2FmxGraphModel%3E&lt;/span&gt;" style="verticalLabelPosition=bottom;verticalAlign=top;html=1;strokeWidth=2;shape=card;whiteSpace=wrap;size=0;arcSize=12;startSize=26;fontSize=17;" parent="1" vertex="1">
          <mxGeometry x="930" y="157" width="50" height="30" as="geometry" />
        </mxCell>
        <mxCell id="J8_9D3t1wL_d87raDJjL-52" style="edgeStyle=orthogonalEdgeStyle;rounded=0;orthogonalLoop=1;jettySize=auto;html=1;exitX=0.5;exitY=1;exitDx=0;exitDy=0;exitPerimeter=0;startArrow=none;startFill=0;startSize=6;endArrow=none;endFill=0;fontSize=17;" parent="1" source="J8_9D3t1wL_d87raDJjL-54" target="J8_9D3t1wL_d87raDJjL-81" edge="1">
          <mxGeometry relative="1" as="geometry">
            <Array as="points">
              <mxPoint x="875" y="216" />
              <mxPoint x="930" y="216" />
              <mxPoint x="930" y="237" />
            </Array>
          </mxGeometry>
        </mxCell>
        <mxCell id="J8_9D3t1wL_d87raDJjL-53" style="edgeStyle=orthogonalEdgeStyle;rounded=0;orthogonalLoop=1;jettySize=auto;html=1;exitX=1;exitY=1;exitDx=0;exitDy=0;exitPerimeter=0;entryX=0.047;entryY=0.033;entryDx=0;entryDy=0;entryPerimeter=0;startArrow=none;startFill=0;startSize=6;endArrow=none;endFill=0;fontSize=17;" parent="1" source="J8_9D3t1wL_d87raDJjL-54" target="J8_9D3t1wL_d87raDJjL-71" edge="1">
          <mxGeometry relative="1" as="geometry">
            <Array as="points">
              <mxPoint x="900" y="210" />
              <mxPoint x="1012" y="210" />
            </Array>
          </mxGeometry>
        </mxCell>
        <mxCell id="J8_9D3t1wL_d87raDJjL-54" value="&lt;span style=&quot;font-family: &amp;#34;helvetica&amp;#34; , &amp;#34;arial&amp;#34; , sans-serif ; font-size: 0px&quot;&gt;%3CmxGraphModel%3E%3Croot%3E%3CmxCell%20id%3D%220%22%2F%3E%3CmxCell%20id%3D%221%22%20parent%3D%220%22%2F%3E%3CmxCell%20id%3D%222%22%20value%3D%22%22%20style%3D%22verticalLabelPosition%3Dbottom%3BverticalAlign%3Dtop%3Bhtml%3D1%3Bshape%3Dmxgraph.basic.rect%3BfillColor%3D%23ffffff%3BfillColor2%3Dnone%3BstrokeColor%3D%23000000%3BstrokeWidth%3D1%3Bsize%3D20%3Bindent%3D5%3BstartSize%3D26%3BfontSize%3D17%3B%22%20vertex%3D%221%22%20parent%3D%221%22%3E%3CmxGeometry%20x%3D%22490%22%20y%3D%22363%22%20width%3D%2255%22%20height%3D%2230%22%20as%3D%22geometry%22%2F%3E%3C%2FmxCell%3E%3C%2Froot%3E%3C%2FmxGraphModel%3E&lt;/span&gt;" style="verticalLabelPosition=bottom;verticalAlign=top;html=1;strokeWidth=2;shape=card;whiteSpace=wrap;size=0;arcSize=12;startSize=26;fontSize=17;" parent="1" vertex="1">
          <mxGeometry x="850" y="149" width="50" height="30" as="geometry" />
        </mxCell>
        <mxCell id="J8_9D3t1wL_d87raDJjL-55" value="&lt;span style=&quot;font-family: &amp;#34;helvetica&amp;#34; , &amp;#34;arial&amp;#34; , sans-serif ; font-size: 0px&quot;&gt;%3CmxGraphModel%3E%3Croot%3E%3CmxCell%20id%3D%220%22%2F%3E%3CmxCell%20id%3D%221%22%20parent%3D%220%22%2F%3E%3CmxCell%20id%3D%222%22%20value%3D%22%22%20style%3D%22verticalLabelPosition%3Dbottom%3BverticalAlign%3Dtop%3Bhtml%3D1%3Bshape%3Dmxgraph.basic.rect%3BfillColor%3D%23ffffff%3BfillColor2%3Dnone%3BstrokeColor%3D%23000000%3BstrokeWidth%3D1%3Bsize%3D20%3Bindent%3D5%3BstartSize%3D26%3BfontSize%3D17%3B%22%20vertex%3D%221%22%20parent%3D%221%22%3E%3CmxGeometry%20x%3D%22490%22%20y%3D%22363%22%20width%3D%2255%22%20height%3D%2230%22%20as%3D%22geometry%22%2F%3E%3C%2FmxCell%3E%3C%2Froot%3E%3C%2FmxGraphModel%3E&lt;/span&gt;" style="verticalLabelPosition=bottom;verticalAlign=top;html=1;strokeWidth=2;shape=card;whiteSpace=wrap;size=0;arcSize=12;startSize=26;fontSize=17;" parent="1" vertex="1">
          <mxGeometry x="845" y="226" width="50" height="30" as="geometry" />
        </mxCell>
        <mxCell id="J8_9D3t1wL_d87raDJjL-56" style="edgeStyle=orthogonalEdgeStyle;rounded=0;orthogonalLoop=1;jettySize=auto;html=1;exitX=0;exitY=0;exitDx=0;exitDy=15;exitPerimeter=0;entryX=0.95;entryY=0.25;entryDx=0;entryDy=0;entryPerimeter=0;startArrow=none;startFill=0;startSize=6;endArrow=none;endFill=0;fontSize=17;" parent="1" source="J8_9D3t1wL_d87raDJjL-58" target="J8_9D3t1wL_d87raDJjL-82" edge="1">
          <mxGeometry relative="1" as="geometry" />
        </mxCell>
        <mxCell id="J8_9D3t1wL_d87raDJjL-57" style="edgeStyle=orthogonalEdgeStyle;rounded=0;orthogonalLoop=1;jettySize=auto;html=1;exitX=0;exitY=0;exitDx=0;exitDy=0;exitPerimeter=0;entryX=1;entryY=0;entryDx=0;entryDy=0;entryPerimeter=0;startArrow=none;startFill=0;startSize=6;endArrow=none;endFill=0;fontSize=17;" parent="1" source="J8_9D3t1wL_d87raDJjL-58" target="J8_9D3t1wL_d87raDJjL-70" edge="1">
          <mxGeometry relative="1" as="geometry">
            <Array as="points">
              <mxPoint x="980" y="216" />
              <mxPoint x="980" y="226" />
            </Array>
          </mxGeometry>
        </mxCell>
        <mxCell id="J8_9D3t1wL_d87raDJjL-58" value="&lt;span style=&quot;font-family: &amp;#34;helvetica&amp;#34; , &amp;#34;arial&amp;#34; , sans-serif ; font-size: 0px&quot;&gt;%3CmxGraphModel%3E%3Croot%3E%3CmxCell%20id%3D%220%22%2F%3E%3CmxCell%20id%3D%221%22%20parent%3D%220%22%2F%3E%3CmxCell%20id%3D%222%22%20value%3D%22%22%20style%3D%22verticalLabelPosition%3Dbottom%3BverticalAlign%3Dtop%3Bhtml%3D1%3Bshape%3Dmxgraph.basic.rect%3BfillColor%3D%23ffffff%3BfillColor2%3Dnone%3BstrokeColor%3D%23000000%3BstrokeWidth%3D1%3Bsize%3D20%3Bindent%3D5%3BstartSize%3D26%3BfontSize%3D17%3B%22%20vertex%3D%221%22%20parent%3D%221%22%3E%3CmxGeometry%20x%3D%22490%22%20y%3D%22363%22%20width%3D%2255%22%20height%3D%2230%22%20as%3D%22geometry%22%2F%3E%3C%2FmxCell%3E%3C%2Froot%3E%3C%2FmxGraphModel%3E&lt;/span&gt;" style="verticalLabelPosition=bottom;verticalAlign=top;html=1;strokeWidth=2;shape=card;whiteSpace=wrap;size=0;arcSize=12;startSize=26;fontSize=17;" parent="1" vertex="1">
          <mxGeometry x="1097" y="216" width="60" height="30" as="geometry" />
        </mxCell>
        <mxCell id="J8_9D3t1wL_d87raDJjL-59" style="edgeStyle=orthogonalEdgeStyle;rounded=0;orthogonalLoop=1;jettySize=auto;html=1;exitX=0;exitY=0;exitDx=0;exitDy=0;exitPerimeter=0;entryX=1.007;entryY=0.856;entryDx=0;entryDy=0;entryPerimeter=0;startArrow=none;startFill=0;startSize=6;endArrow=none;endFill=0;fontSize=17;" parent="1" source="J8_9D3t1wL_d87raDJjL-61" target="J8_9D3t1wL_d87raDJjL-71" edge="1">
          <mxGeometry relative="1" as="geometry" />
        </mxCell>
        <mxCell id="J8_9D3t1wL_d87raDJjL-60" style="edgeStyle=orthogonalEdgeStyle;rounded=0;orthogonalLoop=1;jettySize=auto;html=1;exitX=0;exitY=0;exitDx=0;exitDy=15;exitPerimeter=0;entryX=0.873;entryY=1.011;entryDx=0;entryDy=0;entryPerimeter=0;startArrow=none;startFill=0;startSize=6;endArrow=none;endFill=0;fontSize=17;" parent="1" source="J8_9D3t1wL_d87raDJjL-61" target="J8_9D3t1wL_d87raDJjL-70" edge="1">
          <mxGeometry relative="1" as="geometry">
            <Array as="points">
              <mxPoint x="1080" y="300" />
              <mxPoint x="1080" y="276" />
              <mxPoint x="984" y="276" />
            </Array>
          </mxGeometry>
        </mxCell>
        <mxCell id="J8_9D3t1wL_d87raDJjL-61" value="&lt;span style=&quot;font-family: &amp;#34;helvetica&amp;#34; , &amp;#34;arial&amp;#34; , sans-serif ; font-size: 0px&quot;&gt;%3CmxGraphModel%3E%3Croot%3E%3CmxCell%20id%3D%220%22%2F%3E%3CmxCell%20id%3D%221%22%20parent%3D%220%22%2F%3E%3CmxCell%20id%3D%222%22%20value%3D%22%22%20style%3D%22verticalLabelPosition%3Dbottom%3BverticalAlign%3Dtop%3Bhtml%3D1%3Bshape%3Dmxgraph.basic.rect%3BfillColor%3D%23ffffff%3BfillColor2%3Dnone%3BstrokeColor%3D%23000000%3BstrokeWidth%3D1%3Bsize%3D20%3Bindent%3D5%3BstartSize%3D26%3BfontSize%3D17%3B%22%20vertex%3D%221%22%20parent%3D%221%22%3E%3CmxGeometry%20x%3D%22490%22%20y%3D%22363%22%20width%3D%2255%22%20height%3D%2230%22%20as%3D%22geometry%22%2F%3E%3C%2FmxCell%3E%3C%2Froot%3E%3C%2FmxGraphModel%3E&lt;/span&gt;" style="verticalLabelPosition=bottom;verticalAlign=top;html=1;strokeWidth=2;shape=card;whiteSpace=wrap;size=0;arcSize=12;startSize=26;fontSize=17;" parent="1" vertex="1">
          <mxGeometry x="1090" y="285" width="50" height="30" as="geometry" />
        </mxCell>
        <mxCell id="J8_9D3t1wL_d87raDJjL-62" style="edgeStyle=orthogonalEdgeStyle;rounded=0;orthogonalLoop=1;jettySize=auto;html=1;exitX=0;exitY=0;exitDx=0;exitDy=0;exitPerimeter=0;entryX=0.5;entryY=1;entryDx=0;entryDy=0;entryPerimeter=0;startArrow=none;startFill=0;startSize=6;endArrow=none;endFill=0;fontSize=17;" parent="1" source="J8_9D3t1wL_d87raDJjL-65" target="J8_9D3t1wL_d87raDJjL-55" edge="1">
          <mxGeometry relative="1" as="geometry" />
        </mxCell>
        <mxCell id="J8_9D3t1wL_d87raDJjL-63" style="edgeStyle=orthogonalEdgeStyle;rounded=0;orthogonalLoop=1;jettySize=auto;html=1;exitX=1;exitY=0;exitDx=0;exitDy=0;exitPerimeter=0;entryX=0.2;entryY=1;entryDx=0;entryDy=0;entryPerimeter=0;startArrow=none;startFill=0;startSize=6;endArrow=none;endFill=0;fontSize=17;" parent="1" source="J8_9D3t1wL_d87raDJjL-65" target="J8_9D3t1wL_d87raDJjL-70" edge="1">
          <mxGeometry relative="1" as="geometry">
            <Array as="points">
              <mxPoint x="920" y="269" />
              <mxPoint x="950" y="269" />
            </Array>
          </mxGeometry>
        </mxCell>
        <mxCell id="J8_9D3t1wL_d87raDJjL-64" style="edgeStyle=orthogonalEdgeStyle;rounded=0;orthogonalLoop=1;jettySize=auto;html=1;exitX=1;exitY=0.5;exitDx=0;exitDy=0;exitPerimeter=0;entryX=0.209;entryY=1.024;entryDx=0;entryDy=0;entryPerimeter=0;startArrow=none;startFill=0;startSize=6;endArrow=none;endFill=0;fontSize=17;" parent="1" source="J8_9D3t1wL_d87raDJjL-65" target="J8_9D3t1wL_d87raDJjL-71" edge="1">
          <mxGeometry relative="1" as="geometry">
            <Array as="points">
              <mxPoint x="930" y="305" />
              <mxPoint x="930" y="286" />
              <mxPoint x="1020" y="286" />
            </Array>
          </mxGeometry>
        </mxCell>
        <mxCell id="J8_9D3t1wL_d87raDJjL-65" value="&lt;span style=&quot;font-family: &amp;#34;helvetica&amp;#34; , &amp;#34;arial&amp;#34; , sans-serif ; font-size: 0px&quot;&gt;%3CmxGraphModel%3E%3Croot%3E%3CmxCell%20id%3D%220%22%2F%3E%3CmxCell%20id%3D%221%22%20parent%3D%220%22%2F%3E%3CmxCell%20id%3D%222%22%20value%3D%22%22%20style%3D%22verticalLabelPosition%3Dbottom%3BverticalAlign%3Dtop%3Bhtml%3D1%3Bshape%3Dmxgraph.basic.rect%3BfillColor%3D%23ffffff%3BfillColor2%3Dnone%3BstrokeColor%3D%23000000%3BstrokeWidth%3D1%3Bsize%3D20%3Bindent%3D5%3BstartSize%3D26%3BfontSize%3D17%3B%22%20vertex%3D%221%22%20parent%3D%221%22%3E%3CmxGeometry%20x%3D%22490%22%20y%3D%22363%22%20width%3D%2255%22%20height%3D%2230%22%20as%3D%22geometry%22%2F%3E%3C%2FmxCell%3E%3C%2Froot%3E%3C%2FmxGraphModel%3E&lt;/span&gt;" style="verticalLabelPosition=bottom;verticalAlign=top;html=1;strokeWidth=2;shape=card;whiteSpace=wrap;size=0;arcSize=12;startSize=26;fontSize=17;" parent="1" vertex="1">
          <mxGeometry x="870" y="289.5" width="50" height="30" as="geometry" />
        </mxCell>
        <mxCell id="J8_9D3t1wL_d87raDJjL-66" style="edgeStyle=orthogonalEdgeStyle;rounded=0;orthogonalLoop=1;jettySize=auto;html=1;exitX=0;exitY=1;exitDx=0;exitDy=0;exitPerimeter=0;entryX=0.046;entryY=0.638;entryDx=0;entryDy=0;entryPerimeter=0;startArrow=none;startFill=0;startSize=6;endArrow=none;endFill=0;fontSize=17;" parent="1" source="J8_9D3t1wL_d87raDJjL-69" target="J8_9D3t1wL_d87raDJjL-6" edge="1">
          <mxGeometry relative="1" as="geometry">
            <Array as="points">
              <mxPoint x="975" y="336" />
              <mxPoint x="850" y="336" />
            </Array>
          </mxGeometry>
        </mxCell>
        <mxCell id="J8_9D3t1wL_d87raDJjL-67" style="edgeStyle=orthogonalEdgeStyle;rounded=0;orthogonalLoop=1;jettySize=auto;html=1;exitX=0;exitY=0;exitDx=0;exitDy=15;exitPerimeter=0;entryX=0.313;entryY=1.044;entryDx=0;entryDy=0;entryPerimeter=0;startArrow=none;startFill=0;startSize=6;endArrow=none;endFill=0;fontSize=17;" parent="1" source="J8_9D3t1wL_d87raDJjL-69" target="J8_9D3t1wL_d87raDJjL-70" edge="1">
          <mxGeometry relative="1" as="geometry" />
        </mxCell>
        <mxCell id="J8_9D3t1wL_d87raDJjL-68" style="edgeStyle=orthogonalEdgeStyle;rounded=0;orthogonalLoop=1;jettySize=auto;html=1;exitX=1;exitY=1;exitDx=0;exitDy=0;exitPerimeter=0;entryX=0.6;entryY=1;entryDx=0;entryDy=0;entryPerimeter=0;startArrow=none;startFill=0;startSize=6;endArrow=none;endFill=0;fontSize=17;" parent="1" source="J8_9D3t1wL_d87raDJjL-69" target="J8_9D3t1wL_d87raDJjL-71" edge="1">
          <mxGeometry relative="1" as="geometry">
            <Array as="points">
              <mxPoint x="1026" y="315" />
              <mxPoint x="1040" y="315" />
            </Array>
          </mxGeometry>
        </mxCell>
        <mxCell id="J8_9D3t1wL_d87raDJjL-69" value="&lt;span style=&quot;font-family: &amp;#34;helvetica&amp;#34; , &amp;#34;arial&amp;#34; , sans-serif ; font-size: 0px&quot;&gt;%3CmxGraphModel%3E%3Croot%3E%3CmxCell%20id%3D%220%22%2F%3E%3CmxCell%20id%3D%221%22%20parent%3D%220%22%2F%3E%3CmxCell%20id%3D%222%22%20value%3D%22%22%20style%3D%22verticalLabelPosition%3Dbottom%3BverticalAlign%3Dtop%3Bhtml%3D1%3Bshape%3Dmxgraph.basic.rect%3BfillColor%3D%23ffffff%3BfillColor2%3Dnone%3BstrokeColor%3D%23000000%3BstrokeWidth%3D1%3Bsize%3D20%3Bindent%3D5%3BstartSize%3D26%3BfontSize%3D17%3B%22%20vertex%3D%221%22%20parent%3D%221%22%3E%3CmxGeometry%20x%3D%22490%22%20y%3D%22363%22%20width%3D%2255%22%20height%3D%2230%22%20as%3D%22geometry%22%2F%3E%3C%2FmxCell%3E%3C%2Froot%3E%3C%2FmxGraphModel%3E&lt;/span&gt;" style="verticalLabelPosition=bottom;verticalAlign=top;html=1;strokeWidth=2;shape=card;whiteSpace=wrap;size=0;arcSize=12;startSize=26;fontSize=17;" parent="1" vertex="1">
          <mxGeometry x="975.5" y="300" width="50" height="30" as="geometry" />
        </mxCell>
        <mxCell id="J8_9D3t1wL_d87raDJjL-70" value="&lt;span style=&quot;font-family: &amp;#34;helvetica&amp;#34; , &amp;#34;arial&amp;#34; , sans-serif ; font-size: 0px&quot;&gt;%3CmxGraphModel%3E%3Croot%3E%3CmxCell%20id%3D%220%22%2F%3E%3CmxCell%20id%3D%221%22%20parent%3D%220%22%2F%3E%3CmxCell%20id%3D%222%22%20value%3D%22%22%20style%3D%22verticalLabelPosition%3Dbottom%3BverticalAlign%3Dtop%3Bhtml%3D1%3Bshape%3Dmxgraph.basic.rect%3BfillColor%3D%23ffffff%3BfillColor2%3Dnone%3BstrokeColor%3D%23000000%3BstrokeWidth%3D1%3Bsize%3D20%3Bindent%3D5%3BstartSize%3D26%3BfontSize%3D17%3B%22%20vertex%3D%221%22%20parent%3D%221%22%3E%3CmxGeometry%20x%3D%22490%22%20y%3D%22363%22%20width%3D%2255%22%20height%3D%2230%22%20as%3D%22geometry%22%2F%3E%3C%2FmxCell%3E%3C%2Froot%3E%3C%2FmxGraphModel%3E&lt;/span&gt;" style="verticalLabelPosition=bottom;verticalAlign=top;html=1;strokeWidth=2;shape=card;whiteSpace=wrap;size=0;arcSize=12;startSize=26;fontSize=17;" parent="1" vertex="1">
          <mxGeometry x="910" y="226" width="80" height="30" as="geometry" />
        </mxCell>
        <mxCell id="J8_9D3t1wL_d87raDJjL-71" value="&lt;span style=&quot;font-family: &amp;#34;helvetica&amp;#34; , &amp;#34;arial&amp;#34; , sans-serif ; font-size: 0px&quot;&gt;%3CmxGraphModel%3E%3Croot%3E%3CmxCell%20id%3D%220%22%2F%3E%3CmxCell%20id%3D%221%22%20parent%3D%220%22%2F%3E%3CmxCell%20id%3D%222%22%20value%3D%22%22%20style%3D%22verticalLabelPosition%3Dbottom%3BverticalAlign%3Dtop%3Bhtml%3D1%3Bshape%3Dmxgraph.basic.rect%3BfillColor%3D%23ffffff%3BfillColor2%3Dnone%3BstrokeColor%3D%23000000%3BstrokeWidth%3D1%3Bsize%3D20%3Bindent%3D5%3BstartSize%3D26%3BfontSize%3D17%3B%22%20vertex%3D%221%22%20parent%3D%221%22%3E%3CmxGeometry%20x%3D%22490%22%20y%3D%22363%22%20width%3D%2255%22%20height%3D%2230%22%20as%3D%22geometry%22%2F%3E%3C%2FmxCell%3E%3C%2Froot%3E%3C%2FmxGraphModel%3E&lt;/span&gt;" style="verticalLabelPosition=bottom;verticalAlign=top;html=1;strokeWidth=2;shape=card;whiteSpace=wrap;size=0;arcSize=12;startSize=26;fontSize=17;" parent="1" vertex="1">
          <mxGeometry x="1010" y="226" width="50" height="30" as="geometry" />
        </mxCell>
        <mxCell id="J8_9D3t1wL_d87raDJjL-72" value="&lt;font style=&quot;font-size: 8px&quot;&gt;dim_group&lt;/font&gt;" style="text;html=1;resizable=0;points=[];autosize=1;align=left;verticalAlign=top;spacingTop=-4;fontSize=17;" parent="1" vertex="1">
          <mxGeometry x="855" y="149" width="50" height="20" as="geometry" />
        </mxCell>
        <mxCell id="J8_9D3t1wL_d87raDJjL-73" value="&lt;font style=&quot;font-size: 8px&quot;&gt;dim_event&lt;/font&gt;" style="text;html=1;resizable=0;points=[];autosize=1;align=left;verticalAlign=top;spacingTop=-4;fontSize=17;" parent="1" vertex="1">
          <mxGeometry x="934.5" y="156" width="50" height="20" as="geometry" />
        </mxCell>
        <mxCell id="J8_9D3t1wL_d87raDJjL-74" value="&lt;font style=&quot;font-size: 8px&quot;&gt;&lt;font style=&quot;font-size: 8px&quot;&gt;dim_competition&lt;/font&gt;&lt;/font&gt;" style="text;html=1;resizable=0;points=[];autosize=1;align=left;verticalAlign=top;spacingTop=-4;fontSize=17;" parent="1" vertex="1">
          <mxGeometry x="1018.5" y="156" width="70" height="20" as="geometry" />
        </mxCell>
        <mxCell id="J8_9D3t1wL_d87raDJjL-75" value="&lt;font style=&quot;font-size: 8px&quot;&gt;dim_pool&lt;/font&gt;" style="text;html=1;resizable=0;points=[];autosize=1;align=left;verticalAlign=top;spacingTop=-4;fontSize=17;" parent="1" vertex="1">
          <mxGeometry x="1108" y="147" width="50" height="20" as="geometry" />
        </mxCell>
        <mxCell id="J8_9D3t1wL_d87raDJjL-76" value="&lt;font style=&quot;font-size: 8px&quot;&gt;dim_norm&lt;/font&gt;" style="text;html=1;resizable=0;points=[];autosize=1;align=left;verticalAlign=top;spacingTop=-4;fontSize=17;" parent="1" vertex="1">
          <mxGeometry x="852" y="226" width="50" height="20" as="geometry" />
        </mxCell>
        <mxCell id="J8_9D3t1wL_d87raDJjL-77" value="&lt;font style=&quot;font-size: 8px&quot;&gt;dim_rank&lt;/font&gt;" style="text;html=1;resizable=0;points=[];autosize=1;align=left;verticalAlign=top;spacingTop=-4;fontSize=17;" parent="1" vertex="1">
          <mxGeometry x="877" y="289" width="50" height="20" as="geometry" />
        </mxCell>
        <mxCell id="J8_9D3t1wL_d87raDJjL-78" value="&lt;font style=&quot;font-size: 7px&quot;&gt;&lt;font style=&quot;font-size: 7px&quot;&gt;dim_discipline&lt;/font&gt;&lt;/font&gt;" style="text;html=1;resizable=0;points=[];autosize=1;align=left;verticalAlign=top;spacingTop=-4;fontSize=17;" parent="1" vertex="1">
          <mxGeometry x="977.5" y="300" width="60" height="20" as="geometry" />
        </mxCell>
        <mxCell id="J8_9D3t1wL_d87raDJjL-79" value="&lt;font style=&quot;font-size: 8px&quot;&gt;dim_club&lt;/font&gt;" style="text;html=1;resizable=0;points=[];autosize=1;align=left;verticalAlign=top;spacingTop=-4;fontSize=17;" parent="1" vertex="1">
          <mxGeometry x="1098" y="284.5" width="50" height="20" as="geometry" />
        </mxCell>
        <mxCell id="J8_9D3t1wL_d87raDJjL-80" value="&lt;font style=&quot;font-size: 8px&quot;&gt;&lt;font style=&quot;font-size: 8px&quot;&gt;dim_swimmer&lt;/font&gt;&lt;/font&gt;" style="text;html=1;resizable=0;points=[];autosize=1;align=left;verticalAlign=top;spacingTop=-4;fontSize=17;" parent="1" vertex="1">
          <mxGeometry x="1100" y="216" width="60" height="20" as="geometry" />
        </mxCell>
        <mxCell id="J8_9D3t1wL_d87raDJjL-81" value="&lt;font style=&quot;font-size: 8px&quot;&gt;fact_disqualification&lt;/font&gt;" style="text;html=1;resizable=0;points=[];autosize=1;align=left;verticalAlign=top;spacingTop=-4;fontSize=17;" parent="1" vertex="1">
          <mxGeometry x="913.5" y="226.5" width="90" height="20" as="geometry" />
        </mxCell>
        <mxCell id="J8_9D3t1wL_d87raDJjL-82" value="&lt;font style=&quot;font-size: 8px&quot;&gt;fact_result&lt;/font&gt;" style="text;html=1;resizable=0;points=[];autosize=1;align=left;verticalAlign=top;spacingTop=-4;fontSize=17;" parent="1" vertex="1">
          <mxGeometry x="1016" y="226" width="50" height="20" as="geometry" />
        </mxCell>
        <mxCell id="J8_9D3t1wL_d87raDJjL-83" style="edgeStyle=orthogonalEdgeStyle;rounded=0;orthogonalLoop=1;jettySize=auto;html=1;exitX=0;exitY=0.75;exitDx=0;exitDy=0;entryX=0.5;entryY=1;entryDx=0;entryDy=0;entryPerimeter=0;startArrow=none;startFill=0;startSize=6;endArrow=classic;endFill=1;fontSize=17;dashed=1;fillColor=#dae8fc;strokeColor=#6c8ebf;" parent="1" source="J8_9D3t1wL_d87raDJjL-84" target="J8_9D3t1wL_d87raDJjL-9" edge="1">
          <mxGeometry relative="1" as="geometry" />
        </mxCell>
        <mxCell id="J8_9D3t1wL_d87raDJjL-84" value="" style="rounded=1;whiteSpace=wrap;html=1;absoluteArcSize=1;arcSize=14;strokeWidth=2;startSize=26;fillColor=#fff2cc;fontSize=17;" parent="1" vertex="1">
          <mxGeometry x="951" y="450" width="149" height="40" as="geometry" />
        </mxCell>
        <mxCell id="J8_9D3t1wL_d87raDJjL-85" value="&lt;font style=&quot;font-size: 12px&quot;&gt;DW ETL(views/SSIS, i/u)&lt;/font&gt;" style="text;html=1;resizable=0;points=[];autosize=1;align=left;verticalAlign=top;spacingTop=-4;fontSize=17;" parent="1" vertex="1">
          <mxGeometry x="955.5" y="456" width="150" height="20" as="geometry" />
        </mxCell>
        <mxCell id="J8_9D3t1wL_d87raDJjL-86" value="" style="strokeWidth=2;html=1;shape=mxgraph.flowchart.multi-document;whiteSpace=wrap;startSize=26;fillColor=#FFFFFF;fontSize=17;" parent="1" vertex="1">
          <mxGeometry x="1020" y="606" width="108" height="70" as="geometry" />
        </mxCell>
        <mxCell id="J8_9D3t1wL_d87raDJjL-87" value="&lt;font style=&quot;font-size: 10px&quot;&gt;Presentation&lt;br&gt;Layer&lt;br&gt;&lt;/font&gt;" style="text;html=1;resizable=0;points=[];autosize=1;align=center;verticalAlign=top;spacingTop=-4;fontSize=17;" parent="1" vertex="1">
          <mxGeometry x="1032" y="618" width="70" height="50" as="geometry" />
        </mxCell>
        <mxCell id="J8_9D3t1wL_d87raDJjL-88" value="&lt;font style=&quot;font-size: 20px&quot;&gt;get_cars(python) - Data Flow Diagram&lt;/font&gt;" style="text;html=1;resizable=0;points=[];autosize=1;align=left;verticalAlign=top;spacingTop=-8;fontSize=14;spacingLeft=7;" parent="1" vertex="1">
          <mxGeometry x="360" y="10" width="370" height="30" as="geometry" />
        </mxCell>
        <mxCell id="J8_9D3t1wL_d87raDJjL-89" style="edgeStyle=orthogonalEdgeStyle;rounded=0;orthogonalLoop=1;jettySize=auto;html=1;exitX=0.75;exitY=1;exitDx=0;exitDy=0;entryX=0.169;entryY=0.041;entryDx=0;entryDy=0;entryPerimeter=0;startArrow=none;startFill=0;startSize=6;endArrow=classic;endFill=1;fontSize=17;dashed=1;fillColor=#dae8fc;strokeColor=#6c8ebf;" parent="1" source="J8_9D3t1wL_d87raDJjL-91" target="J8_9D3t1wL_d87raDJjL-9" edge="1">
          <mxGeometry relative="1" as="geometry">
            <Array as="points">
              <mxPoint x="391" y="150" />
              <mxPoint x="420" y="150" />
              <mxPoint x="420" y="260" />
              <mxPoint x="502" y="260" />
            </Array>
          </mxGeometry>
        </mxCell>
        <mxCell id="J8_9D3t1wL_d87raDJjL-90" style="edgeStyle=orthogonalEdgeStyle;rounded=0;orthogonalLoop=1;jettySize=auto;html=1;exitX=0.5;exitY=1;exitDx=0;exitDy=0;entryX=0.133;entryY=0.059;entryDx=0;entryDy=0;entryPerimeter=0;dashed=1;startArrow=none;startFill=0;startSize=6;endArrow=classic;endFill=1;fontSize=17;fillColor=#f8cecc;strokeColor=#b85450;" parent="1" source="J8_9D3t1wL_d87raDJjL-91" target="J8_9D3t1wL_d87raDJjL-9" edge="1">
          <mxGeometry relative="1" as="geometry">
            <Array as="points">
              <mxPoint x="380" y="125" />
              <mxPoint x="380" y="160" />
              <mxPoint x="410" y="160" />
              <mxPoint x="410" y="270" />
              <mxPoint x="496" y="270" />
            </Array>
          </mxGeometry>
        </mxCell>
        <mxCell id="J8_9D3t1wL_d87raDJjL-91" value="" style="rounded=1;whiteSpace=wrap;html=1;absoluteArcSize=1;arcSize=14;strokeWidth=2;startSize=26;fillColor=#fff2cc;fontSize=17;" parent="1" vertex="1">
          <mxGeometry x="339" y="71" width="70" height="54" as="geometry" />
        </mxCell>
        <mxCell id="J8_9D3t1wL_d87raDJjL-92" style="edgeStyle=orthogonalEdgeStyle;rounded=0;orthogonalLoop=1;jettySize=auto;html=1;exitX=1;exitY=0.543;exitDx=0;exitDy=0;exitPerimeter=0;startArrow=none;startFill=0;startSize=6;endArrow=classic;endFill=1;fontSize=17;" parent="1" source="J8_9D3t1wL_d87raDJjL-100" target="J8_9D3t1wL_d87raDJjL-98" edge="1">
          <mxGeometry relative="1" as="geometry">
            <Array as="points">
              <mxPoint x="69" y="77" />
            </Array>
          </mxGeometry>
        </mxCell>
        <mxCell id="J8_9D3t1wL_d87raDJjL-93" value="" style="verticalLabelPosition=bottom;verticalAlign=top;html=1;strokeWidth=2;shape=card;whiteSpace=wrap;size=26;arcSize=12;startSize=26;fillColor=#FFFFFF;fontSize=17;direction=south;" parent="1" vertex="1">
          <mxGeometry x="10" y="40" width="60" height="87" as="geometry" />
        </mxCell>
        <mxCell id="J8_9D3t1wL_d87raDJjL-94" style="edgeStyle=orthogonalEdgeStyle;rounded=0;orthogonalLoop=1;jettySize=auto;html=1;exitX=0.711;exitY=1.05;exitDx=0;exitDy=0;entryX=-0.009;entryY=0.285;entryDx=0;entryDy=0;entryPerimeter=0;dashed=1;startArrow=none;startFill=0;startSize=6;endArrow=classic;endFill=1;fontSize=17;fillColor=#f8cecc;strokeColor=#b85450;exitPerimeter=0;" parent="1" source="J8_9D3t1wL_d87raDJjL-96" target="J8_9D3t1wL_d87raDJjL-9" edge="1">
          <mxGeometry relative="1" as="geometry">
            <Array as="points">
              <mxPoint x="160" y="130" />
              <mxPoint x="210" y="130" />
              <mxPoint x="210" y="200" />
              <mxPoint x="370" y="200" />
              <mxPoint x="370" y="338" />
            </Array>
          </mxGeometry>
        </mxCell>
        <mxCell id="J8_9D3t1wL_d87raDJjL-95" style="edgeStyle=orthogonalEdgeStyle;rounded=0;orthogonalLoop=1;jettySize=auto;html=1;exitX=0.846;exitY=0.997;exitDx=0;exitDy=0;entryX=0.002;entryY=0.188;entryDx=0;entryDy=0;entryPerimeter=0;dashed=1;startArrow=none;startFill=0;startSize=6;endArrow=classic;endFill=1;fontSize=17;fillColor=#dae8fc;strokeColor=#6c8ebf;exitPerimeter=0;" parent="1" source="J8_9D3t1wL_d87raDJjL-96" target="J8_9D3t1wL_d87raDJjL-9" edge="1">
          <mxGeometry relative="1" as="geometry">
            <Array as="points">
              <mxPoint x="171" y="120" />
              <mxPoint x="220" y="120" />
              <mxPoint x="220" y="190" />
              <mxPoint x="380" y="190" />
              <mxPoint x="380" y="324" />
            </Array>
          </mxGeometry>
        </mxCell>
        <mxCell id="J8_9D3t1wL_d87raDJjL-96" value="" style="rounded=1;whiteSpace=wrap;html=1;absoluteArcSize=1;arcSize=14;strokeWidth=2;startSize=26;fillColor=#fff2cc;fontSize=17;" parent="1" vertex="1">
          <mxGeometry x="103" y="56" width="80" height="54" as="geometry" />
        </mxCell>
        <mxCell id="J8_9D3t1wL_d87raDJjL-97" value="&lt;font style=&quot;font-size: 13px&quot;&gt;pdf ETL&amp;nbsp;&amp;nbsp;&lt;br&gt;(Python, i)&lt;/font&gt;" style="text;html=1;resizable=0;points=[];autosize=1;align=center;verticalAlign=top;spacingTop=-4;fontSize=17;" parent="1" vertex="1">
          <mxGeometry x="110" y="59" width="70" height="40" as="geometry" />
        </mxCell>
        <mxCell id="J8_9D3t1wL_d87raDJjL-98" value="&lt;span style=&quot;font-family: &amp;#34;helvetica&amp;#34; , &amp;#34;arial&amp;#34; , sans-serif ; font-size: 0px&quot;&gt;%3CmxGraphModel%3E%3Croot%3E%3CmxCell%20id%3D%220%22%2F%3E%3CmxCell%20id%3D%221%22%20parent%3D%220%22%2F%3E%3CmxCell%20id%3D%222%22%20value%3D%22%22%20style%3D%22verticalLabelPosition%3Dbottom%3BverticalAlign%3Dtop%3Bhtml%3D1%3Bshape%3Dmxgraph.basic.rect%3BfillColor%3D%23ffffff%3BfillColor2%3Dnone%3BstrokeColor%3D%23000000%3BstrokeWidth%3D1%3Bsize%3D20%3Bindent%3D5%3BstartSize%3D26%3BfontSize%3D17%3B%22%20vertex%3D%221%22%20parent%3D%221%22%3E%3CmxGeometry%20x%3D%22490%22%20y%3D%22363%22%20width%3D%2255%22%20height%3D%2230%22%20as%3D%22geometry%22%2F%3E%3C%2FmxCell%3E%3C%2Froot%3E%3C%2FmxGraphModel%3E&lt;/span&gt;" style="verticalLabelPosition=bottom;verticalAlign=top;html=1;strokeWidth=2;shape=card;whiteSpace=wrap;size=0;arcSize=12;startSize=26;fontSize=17;" parent="1" vertex="1">
          <mxGeometry x="230" y="48" width="90" height="58" as="geometry" />
        </mxCell>
        <mxCell id="J8_9D3t1wL_d87raDJjL-99" value="&lt;font style=&quot;font-size: 15px&quot;&gt;Staging.json&lt;/font&gt;" style="text;html=1;resizable=0;points=[];autosize=1;align=left;verticalAlign=top;spacingTop=-4;fontSize=17;" parent="1" vertex="1">
          <mxGeometry x="230" y="64" width="100" height="20" as="geometry" />
        </mxCell>
        <mxCell id="J8_9D3t1wL_d87raDJjL-100" value="&lt;font style=&quot;font-size: 13px&quot;&gt;Source&lt;br&gt;.csv File&lt;/font&gt;" style="text;html=1;resizable=0;points=[];autosize=1;align=center;verticalAlign=top;spacingTop=-4;fontSize=17;" parent="1" vertex="1">
          <mxGeometry x="4" y="63" width="70" height="50" as="geometry" />
        </mxCell>
        <mxCell id="J8_9D3t1wL_d87raDJjL-101" style="edgeStyle=orthogonalEdgeStyle;rounded=0;orthogonalLoop=1;jettySize=auto;html=1;exitX=0.75;exitY=1;exitDx=0;exitDy=0;entryX=-0.005;entryY=0.37;entryDx=0;entryDy=0;entryPerimeter=0;dashed=1;startArrow=none;startFill=0;startSize=6;endArrow=classic;endFill=1;fontSize=17;fillColor=#dae8fc;strokeColor=#6c8ebf;" parent="1" source="J8_9D3t1wL_d87raDJjL-103" target="J8_9D3t1wL_d87raDJjL-9" edge="1">
          <mxGeometry relative="1" as="geometry">
            <Array as="points">
              <mxPoint x="170" y="290" />
              <mxPoint x="360" y="290" />
              <mxPoint x="360" y="350" />
            </Array>
          </mxGeometry>
        </mxCell>
        <mxCell id="J8_9D3t1wL_d87raDJjL-102" style="edgeStyle=orthogonalEdgeStyle;rounded=0;orthogonalLoop=1;jettySize=auto;html=1;exitX=0.5;exitY=1;exitDx=0;exitDy=0;entryX=-0.009;entryY=0.436;entryDx=0;entryDy=0;entryPerimeter=0;dashed=1;startArrow=none;startFill=0;startSize=6;endArrow=classic;endFill=1;fontSize=17;fillColor=#f8cecc;strokeColor=#b85450;" parent="1" source="J8_9D3t1wL_d87raDJjL-103" target="J8_9D3t1wL_d87raDJjL-9" edge="1">
          <mxGeometry relative="1" as="geometry">
            <Array as="points">
              <mxPoint x="148" y="300" />
              <mxPoint x="350" y="300" />
              <mxPoint x="350" y="360" />
            </Array>
          </mxGeometry>
        </mxCell>
        <mxCell id="J8_9D3t1wL_d87raDJjL-103" value="" style="rounded=1;whiteSpace=wrap;html=1;absoluteArcSize=1;arcSize=14;strokeWidth=2;startSize=26;fillColor=#fff2cc;fontSize=17;" parent="1" vertex="1">
          <mxGeometry x="104.5" y="199.5" width="87" height="74" as="geometry" />
        </mxCell>
        <mxCell id="J8_9D3t1wL_d87raDJjL-104" value="&lt;font style=&quot;font-size: 13px&quot;&gt;txt Convertor&lt;br&gt;(Console &lt;br&gt;Application, r)&lt;/font&gt;" style="text;html=1;resizable=0;points=[];autosize=1;align=center;verticalAlign=top;spacingTop=-4;fontSize=17;" parent="1" vertex="1">
          <mxGeometry x="103" y="204.5" width="90" height="60" as="geometry" />
        </mxCell>
        <mxCell id="J8_9D3t1wL_d87raDJjL-105" value="" style="verticalLabelPosition=bottom;verticalAlign=top;html=1;strokeWidth=2;shape=card;whiteSpace=wrap;size=26;arcSize=12;startSize=26;fillColor=#FFFFFF;fontSize=17;direction=south;" parent="1" vertex="1">
          <mxGeometry x="10" y="183" width="60" height="87" as="geometry" />
        </mxCell>
        <mxCell id="J8_9D3t1wL_d87raDJjL-106" value="&lt;font style=&quot;font-size: 13px&quot;&gt;Source&lt;br&gt;pdf File&lt;/font&gt;" style="text;html=1;resizable=0;points=[];autosize=1;align=center;verticalAlign=top;spacingTop=-4;fontSize=17;" parent="1" vertex="1">
          <mxGeometry x="9" y="206" width="60" height="40" as="geometry" />
        </mxCell>
        <mxCell id="J8_9D3t1wL_d87raDJjL-107" style="edgeStyle=orthogonalEdgeStyle;rounded=0;orthogonalLoop=1;jettySize=auto;html=1;exitX=1;exitY=0.5;exitDx=0;exitDy=0;entryX=0.038;entryY=0.11;entryDx=0;entryDy=0;entryPerimeter=0;dashed=1;startArrow=none;startFill=0;startSize=6;endArrow=classic;endFill=1;fontSize=17;fillColor=#dae8fc;strokeColor=#6c8ebf;" parent="1" source="J8_9D3t1wL_d87raDJjL-109" target="J8_9D3t1wL_d87raDJjL-9" edge="1">
          <mxGeometry relative="1" as="geometry">
            <Array as="points">
              <mxPoint x="370" y="154" />
              <mxPoint x="370" y="170" />
              <mxPoint x="400" y="170" />
              <mxPoint x="400" y="280" />
              <mxPoint x="481" y="280" />
            </Array>
          </mxGeometry>
        </mxCell>
        <mxCell id="J8_9D3t1wL_d87raDJjL-108" style="edgeStyle=orthogonalEdgeStyle;rounded=0;orthogonalLoop=1;jettySize=auto;html=1;exitX=1;exitY=0.75;exitDx=0;exitDy=0;entryX=0;entryY=0.15;entryDx=0;entryDy=0;entryPerimeter=0;dashed=1;startArrow=none;startFill=0;startSize=6;endArrow=classic;endFill=1;fontSize=17;fillColor=#f8cecc;strokeColor=#b85450;" parent="1" source="J8_9D3t1wL_d87raDJjL-109" target="J8_9D3t1wL_d87raDJjL-9" edge="1">
          <mxGeometry relative="1" as="geometry">
            <Array as="points">
              <mxPoint x="360" y="167" />
              <mxPoint x="360" y="180" />
              <mxPoint x="390" y="180" />
              <mxPoint x="390" y="290" />
              <mxPoint x="475" y="290" />
            </Array>
          </mxGeometry>
        </mxCell>
        <mxCell id="J8_9D3t1wL_d87raDJjL-109" value="" style="rounded=1;whiteSpace=wrap;html=1;absoluteArcSize=1;arcSize=14;strokeWidth=2;startSize=26;fillColor=#fff2cc;fontSize=17;" parent="1" vertex="1">
          <mxGeometry x="237" y="129" width="85" height="51" as="geometry" />
        </mxCell>
        <mxCell id="J8_9D3t1wL_d87raDJjL-110" value="&lt;span style=&quot;font-family: &amp;#34;helvetica&amp;#34; , &amp;#34;arial&amp;#34; , sans-serif ; font-size: 0px&quot;&gt;%3CmxGraphModel%3E%3Croot%3E%3CmxCell%20id%3D%220%22%2F%3E%3CmxCell%20id%3D%221%22%20parent%3D%220%22%2F%3E%3CmxCell%20id%3D%222%22%20value%3D%22%22%20style%3D%22verticalLabelPosition%3Dbottom%3BverticalAlign%3Dtop%3Bhtml%3D1%3Bshape%3Dmxgraph.basic.rect%3BfillColor%3D%23ffffff%3BfillColor2%3Dnone%3BstrokeColor%3D%23000000%3BstrokeWidth%3D1%3Bsize%3D20%3Bindent%3D5%3BstartSize%3D26%3BfontSize%3D17%3B%22%20vertex%3D%221%22%20parent%3D%221%22%3E%3CmxGeometry%20x%3D%22490%22%20y%3D%22363%22%20width%3D%2255%22%20height%3D%2230%22%20as%3D%22geometry%22%2F%3E%3C%2FmxCell%3E%3C%2Froot%3E%3C%2FmxGraphModel%3E&lt;/span&gt;" style="verticalLabelPosition=bottom;verticalAlign=top;html=1;strokeWidth=2;shape=card;whiteSpace=wrap;size=0;arcSize=12;startSize=26;fontSize=17;" parent="1" vertex="1">
          <mxGeometry x="235" y="216" width="90" height="47" as="geometry" />
        </mxCell>
        <mxCell id="J8_9D3t1wL_d87raDJjL-111" value="&lt;font style=&quot;font-size: 15px&quot;&gt;Staging.txt&lt;/font&gt;" style="text;html=1;resizable=0;points=[];autosize=1;align=left;verticalAlign=top;spacingTop=-4;fontSize=17;" parent="1" vertex="1">
          <mxGeometry x="243" y="226.5" width="90" height="20" as="geometry" />
        </mxCell>
        <mxCell id="J8_9D3t1wL_d87raDJjL-112" value="" style="verticalLabelPosition=bottom;verticalAlign=top;html=1;strokeWidth=2;shape=card;whiteSpace=wrap;size=11;arcSize=12;startSize=26;fillColor=#FFFFFF;fontSize=17;direction=south;" parent="1" vertex="1">
          <mxGeometry x="38" y="519" width="32" height="41" as="geometry" />
        </mxCell>
        <mxCell id="J8_9D3t1wL_d87raDJjL-113" value="&lt;font style=&quot;font-size: 13px&quot;&gt;Source&amp;nbsp;Data&lt;/font&gt;" style="text;html=1;resizable=0;points=[];autosize=1;align=center;verticalAlign=top;spacingTop=-4;fontSize=17;" parent="1" vertex="1">
          <mxGeometry x="91.5" y="533" width="90" height="20" as="geometry" />
        </mxCell>
        <mxCell id="J8_9D3t1wL_d87raDJjL-114" value="" style="strokeWidth=2;html=1;shape=mxgraph.flowchart.database;whiteSpace=wrap;startSize=26;fillColor=#FFFFFF;fontSize=17;" parent="1" vertex="1">
          <mxGeometry x="29" y="576" width="41" height="44" as="geometry" />
        </mxCell>
        <mxCell id="J8_9D3t1wL_d87raDJjL-115" value="&lt;font style=&quot;font-size: 13px&quot;&gt;Database&lt;/font&gt;" style="text;html=1;resizable=0;points=[];autosize=1;align=center;verticalAlign=top;spacingTop=-4;fontSize=17;" parent="1" vertex="1">
          <mxGeometry x="94" y="579" width="70" height="20" as="geometry" />
        </mxCell>
        <mxCell id="J8_9D3t1wL_d87raDJjL-116" value="" style="rounded=1;whiteSpace=wrap;html=1;absoluteArcSize=1;arcSize=14;strokeWidth=2;startSize=26;fillColor=#fff2cc;fontSize=17;" parent="1" vertex="1">
          <mxGeometry x="29" y="626.5" width="61" height="29" as="geometry" />
        </mxCell>
        <mxCell id="J8_9D3t1wL_d87raDJjL-117" value="&lt;span style=&quot;font-family: &amp;#34;helvetica&amp;#34; , &amp;#34;arial&amp;#34; , sans-serif ; font-size: 0px&quot;&gt;%3CmxGraphModel%3E%3Croot%3E%3CmxCell%20id%3D%220%22%2F%3E%3CmxCell%20id%3D%221%22%20parent%3D%220%22%2F%3E%3CmxCell%20id%3D%222%22%20value%3D%22%22%20style%3D%22verticalLabelPosition%3Dbottom%3BverticalAlign%3Dtop%3Bhtml%3D1%3Bshape%3Dmxgraph.basic.rect%3BfillColor%3D%23ffffff%3BfillColor2%3Dnone%3BstrokeColor%3D%23000000%3BstrokeWidth%3D1%3Bsize%3D20%3Bindent%3D5%3BstartSize%3D26%3BfontSize%3D17%3B%22%20vertex%3D%221%22%20parent%3D%221%22%3E%3CmxGeometry%20x%3D%22490%22%20y%3D%22363%22%20width%3D%2255%22%20height%3D%2230%22%20as%3D%22geometry%22%2F%3E%3C%2FmxCell%3E%3C%2Froot%3E%3C%2FmxGraphModel%3E&lt;/span&gt;" style="verticalLabelPosition=bottom;verticalAlign=top;html=1;strokeWidth=2;shape=card;whiteSpace=wrap;size=0;arcSize=12;startSize=26;fontSize=17;" parent="1" vertex="1">
          <mxGeometry x="34" y="665" width="32" height="30" as="geometry" />
        </mxCell>
        <mxCell id="J8_9D3t1wL_d87raDJjL-118" value="&lt;font style=&quot;font-size: 13px&quot;&gt;Process&lt;/font&gt;" style="text;html=1;resizable=0;points=[];autosize=1;align=center;verticalAlign=top;spacingTop=-4;fontSize=17;" parent="1" vertex="1">
          <mxGeometry x="95" y="626" width="60" height="20" as="geometry" />
        </mxCell>
        <mxCell id="J8_9D3t1wL_d87raDJjL-119" value="&lt;font style=&quot;font-size: 13px&quot;&gt;Entity&lt;/font&gt;" style="text;html=1;resizable=0;points=[];autosize=1;align=center;verticalAlign=top;spacingTop=-4;fontSize=17;" parent="1" vertex="1">
          <mxGeometry x="93" y="667" width="50" height="20" as="geometry" />
        </mxCell>
        <mxCell id="J8_9D3t1wL_d87raDJjL-120" value="&lt;font style=&quot;font-size: 13px&quot;&gt;Insert only&lt;br&gt;&amp;nbsp;Load&lt;/font&gt;" style="text;html=1;resizable=0;points=[];autosize=1;align=left;verticalAlign=top;spacingTop=-4;fontSize=17;" parent="1" vertex="1">
          <mxGeometry x="315.5" y="580" width="80" height="40" as="geometry" />
        </mxCell>
        <mxCell id="J8_9D3t1wL_d87raDJjL-121" value="&lt;font style=&quot;font-size: 21px&quot;&gt;i&lt;/font&gt;" style="text;html=1;resizable=0;points=[];autosize=1;align=center;verticalAlign=top;spacingTop=-4;fontSize=17;" parent="1" vertex="1">
          <mxGeometry x="264" y="586" width="20" height="20" as="geometry" />
        </mxCell>
        <mxCell id="J8_9D3t1wL_d87raDJjL-122" value="&lt;font style=&quot;font-size: 13px&quot;&gt;Insert/Update&lt;br&gt;&amp;nbsp;Load&lt;/font&gt;" style="text;html=1;resizable=0;points=[];autosize=1;align=left;verticalAlign=top;spacingTop=-4;fontSize=17;" parent="1" vertex="1">
          <mxGeometry x="315.5" y="524" width="90" height="40" as="geometry" />
        </mxCell>
        <mxCell id="J8_9D3t1wL_d87raDJjL-123" value="&lt;font style=&quot;font-size: 21px&quot;&gt;i/u&lt;/font&gt;" style="text;html=1;resizable=0;points=[];autosize=1;align=center;verticalAlign=top;spacingTop=-4;fontSize=17;" parent="1" vertex="1">
          <mxGeometry x="255" y="530" width="40" height="20" as="geometry" />
        </mxCell>
        <mxCell id="J8_9D3t1wL_d87raDJjL-124" style="edgeStyle=orthogonalEdgeStyle;rounded=0;orthogonalLoop=1;jettySize=auto;html=1;dashed=1;startArrow=none;startFill=0;startSize=6;endArrow=classic;endFill=1;fontSize=17;fillColor=#f8cecc;strokeColor=#b85450;" parent="1" edge="1">
          <mxGeometry relative="1" as="geometry">
            <mxPoint x="302" y="712" as="sourcePoint" />
            <mxPoint x="302" y="712" as="targetPoint" />
            <Array as="points">
              <mxPoint x="214" y="712" />
              <mxPoint x="490" y="712" />
            </Array>
          </mxGeometry>
        </mxCell>
        <mxCell id="J8_9D3t1wL_d87raDJjL-125" style="edgeStyle=orthogonalEdgeStyle;rounded=0;orthogonalLoop=1;jettySize=auto;html=1;dashed=1;startArrow=none;startFill=0;startSize=6;endArrow=classic;endFill=1;fontSize=17;fillColor=#dae8fc;strokeColor=#6c8ebf;" parent="1" edge="1">
          <mxGeometry relative="1" as="geometry">
            <mxPoint x="304.20000000000005" y="785" as="sourcePoint" />
            <mxPoint x="304.20000000000005" y="785" as="targetPoint" />
            <Array as="points">
              <mxPoint x="216" y="785" />
              <mxPoint x="492" y="785" />
            </Array>
          </mxGeometry>
        </mxCell>
        <mxCell id="J8_9D3t1wL_d87raDJjL-126" value="&lt;font style=&quot;font-size: 13px&quot;&gt;Data flow to&lt;br&gt;process_load_status&lt;br&gt;table&lt;/font&gt;" style="text;html=1;resizable=0;points=[];autosize=1;align=left;verticalAlign=top;spacingTop=-4;fontSize=17;" parent="1" vertex="1">
          <mxGeometry x="317" y="680" width="130" height="60" as="geometry" />
        </mxCell>
        <mxCell id="J8_9D3t1wL_d87raDJjL-127" value="&lt;font style=&quot;font-size: 13px&quot;&gt;Data flow to&lt;br&gt;bad_data&amp;nbsp;table&lt;/font&gt;" style="text;html=1;resizable=0;points=[];autosize=1;align=left;verticalAlign=top;spacingTop=-4;fontSize=17;" parent="1" vertex="1">
          <mxGeometry x="316" y="760" width="100" height="40" as="geometry" />
        </mxCell>
        <mxCell id="J8_9D3t1wL_d87raDJjL-128" value="&lt;font style=&quot;font-size: 13px&quot;&gt;txt ETL&amp;nbsp;&lt;br&gt;(Python, i)&lt;/font&gt;" style="text;html=1;resizable=0;points=[];autosize=1;align=center;verticalAlign=top;spacingTop=-4;fontSize=17;" parent="1" vertex="1">
          <mxGeometry x="245.5" y="130" width="70" height="40" as="geometry" />
        </mxCell>
        <mxCell id="J8_9D3t1wL_d87raDJjL-129" value="&lt;font style=&quot;font-size: 13px&quot;&gt;stg ETL&lt;br&gt;(SSIS, i)&lt;/font&gt;" style="text;html=1;resizable=0;points=[];autosize=1;align=left;verticalAlign=top;spacingTop=-4;fontSize=17;" parent="1" vertex="1">
          <mxGeometry x="348" y="74" width="60" height="40" as="geometry" />
        </mxCell>
        <mxCell id="J8_9D3t1wL_d87raDJjL-130" style="edgeStyle=orthogonalEdgeStyle;rounded=0;orthogonalLoop=1;jettySize=auto;html=1;exitX=1;exitY=0.5;exitDx=0;exitDy=0;exitPerimeter=0;entryX=-0.005;entryY=0.441;entryDx=0;entryDy=0;entryPerimeter=0;endArrow=none;endFill=0;" parent="1" source="J8_9D3t1wL_d87raDJjL-131" target="J8_9D3t1wL_d87raDJjL-138" edge="1">
          <mxGeometry relative="1" as="geometry">
            <Array as="points">
              <mxPoint x="90" y="359" />
            </Array>
          </mxGeometry>
        </mxCell>
        <mxCell id="J8_9D3t1wL_d87raDJjL-131" value="" style="verticalLabelPosition=bottom;verticalAlign=top;html=1;strokeWidth=2;shape=card;whiteSpace=wrap;size=20;arcSize=12;" parent="1" vertex="1">
          <mxGeometry x="10" y="315" width="80" height="91" as="geometry" />
        </mxCell>
        <mxCell id="J8_9D3t1wL_d87raDJjL-132" value="&lt;font style=&quot;font-size: 13px&quot;&gt;Source&amp;nbsp;&lt;br&gt;swimming&lt;br&gt;&amp;nbsp;norms&lt;br&gt;&amp;nbsp;website&lt;br&gt;&lt;/font&gt;" style="text;html=1;resizable=0;points=[];autosize=1;align=center;verticalAlign=top;spacingTop=-4;fontSize=17;" parent="1" vertex="1">
          <mxGeometry x="18.5" y="318" width="70" height="90" as="geometry" />
        </mxCell>
        <mxCell id="J8_9D3t1wL_d87raDJjL-133" value="" style="verticalLabelPosition=bottom;verticalAlign=top;html=1;strokeWidth=2;shape=card;whiteSpace=wrap;size=20;arcSize=12;" parent="1" vertex="1">
          <mxGeometry x="35" y="726" width="49" height="44" as="geometry" />
        </mxCell>
        <mxCell id="J8_9D3t1wL_d87raDJjL-134" value="&lt;font style=&quot;font-size: 13px&quot;&gt;Source&lt;br&gt;website &lt;br&gt;data&lt;/font&gt;" style="text;html=1;resizable=0;points=[];autosize=1;align=left;verticalAlign=top;spacingTop=-4;fontSize=17;" parent="1" vertex="1">
          <mxGeometry x="100.5" y="714" width="60" height="60" as="geometry" />
        </mxCell>
        <mxCell id="J8_9D3t1wL_d87raDJjL-135" style="edgeStyle=orthogonalEdgeStyle;rounded=0;orthogonalLoop=1;jettySize=auto;html=1;exitX=0.75;exitY=1;exitDx=0;exitDy=0;fillColor=#dae8fc;strokeColor=#6c8ebf;dashed=1;entryX=0;entryY=0.5;entryDx=0;entryDy=0;entryPerimeter=0;" parent="1" source="J8_9D3t1wL_d87raDJjL-138" target="J8_9D3t1wL_d87raDJjL-9" edge="1">
          <mxGeometry relative="1" as="geometry">
            <mxPoint x="473" y="405" as="targetPoint" />
            <Array as="points">
              <mxPoint x="260" y="390" />
              <mxPoint x="260" y="369" />
              <mxPoint x="475" y="369" />
            </Array>
          </mxGeometry>
        </mxCell>
        <mxCell id="J8_9D3t1wL_d87raDJjL-136" style="edgeStyle=orthogonalEdgeStyle;rounded=0;orthogonalLoop=1;jettySize=auto;html=1;exitX=0.75;exitY=1;exitDx=0;exitDy=0;fillColor=#f8cecc;strokeColor=#b85450;dashed=1;entryX=0.003;entryY=0.584;entryDx=0;entryDy=0;entryPerimeter=0;" parent="1" source="J8_9D3t1wL_d87raDJjL-138" target="J8_9D3t1wL_d87raDJjL-9" edge="1">
          <mxGeometry relative="1" as="geometry">
            <mxPoint x="475" y="390" as="targetPoint" />
            <Array as="points">
              <mxPoint x="247" y="382" />
            </Array>
          </mxGeometry>
        </mxCell>
        <mxCell id="J8_9D3t1wL_d87raDJjL-137" style="rounded=0;orthogonalLoop=1;jettySize=auto;html=1;exitX=1;exitY=0.5;exitDx=0;exitDy=0;entryX=0.01;entryY=0.685;entryDx=0;entryDy=0;entryPerimeter=0;endArrow=classic;endFill=1;strokeColor=#000000;" parent="1" source="J8_9D3t1wL_d87raDJjL-138" target="J8_9D3t1wL_d87raDJjL-8" edge="1">
          <mxGeometry relative="1" as="geometry" />
        </mxCell>
        <mxCell id="J8_9D3t1wL_d87raDJjL-138" value="" style="rounded=1;whiteSpace=wrap;html=1;absoluteArcSize=1;arcSize=14;strokeWidth=2;startSize=26;fillColor=#fff2cc;fontSize=17;" parent="1" vertex="1">
          <mxGeometry x="180" y="340" width="90" height="50" as="geometry" />
        </mxCell>
        <mxCell id="J8_9D3t1wL_d87raDJjL-139" value="&lt;font style=&quot;font-size: 13px&quot;&gt;Scraping&lt;br&gt;(Python, i)&lt;/font&gt;" style="text;html=1;resizable=0;points=[];autosize=1;align=center;verticalAlign=top;spacingTop=-4;fontSize=17;" parent="1" vertex="1">
          <mxGeometry x="190" y="341" width="70" height="40" as="geometry" />
        </mxCell>
        <mxCell id="J8_9D3t1wL_d87raDJjL-140" value="&lt;span style=&quot;font-size: 13px&quot;&gt;Fully Reload&lt;/span&gt;" style="text;html=1;resizable=0;points=[];autosize=1;align=left;verticalAlign=top;spacingTop=-4;fontSize=17;" parent="1" vertex="1">
          <mxGeometry x="316" y="633.5" width="90" height="20" as="geometry" />
        </mxCell>
        <mxCell id="J8_9D3t1wL_d87raDJjL-141" value="&lt;font style=&quot;font-size: 21px&quot;&gt;r&lt;/font&gt;" style="text;html=1;resizable=0;points=[];autosize=1;align=center;verticalAlign=top;spacingTop=-4;fontSize=17;" parent="1" vertex="1">
          <mxGeometry x="264" y="630.5" width="20" height="20" as="geometry" />
        </mxCell>
      </root>
    </mxGraphModel>
  </diagram>
</mxfile>
